<svg class="soc-icon" xmlns="http://www.w3.org/2000/svg" width="50" height="50"
	viewBox="0 0 50 50" fill="none">
	<g clip-path="url(#clip0_4510_31846)">
		<g filter="url(#filter0_i_4510_31846)">
			<path
				d="M11.3095 0H38.6905C44.9405 0 50 5.05952 50 11.3095V38.6905C50 44.9405 44.9405 50 38.6905 50H11.3095C5.05952 50 0 44.9405 0 38.6905V11.3095C0 5.05952 5.05952 0 11.3095 0Z"
				fill="#FFFEFF" />
			<path
				d="M11.3095 0.3125H38.6905C44.7679 0.3125 49.6875 5.23211 49.6875 11.3095V38.6905C49.6875 44.7679 44.7679 49.6875 38.6905 49.6875H11.3095C5.23211 49.6875 0.3125 44.7679 0.3125 38.6905V11.3095C0.3125 5.23211 5.23211 0.3125 11.3095 0.3125Z"
				stroke="black" stroke-opacity="0.05" />
			<path
				d="M28.7001 6.93906C27.4644 6.54925 26.1404 6.33594 24.7722 6.33594C20.778 6.33594 17.2031 8.13806 14.8125 10.9774L20.9546 16.1411L28.7001 6.93906Z"
				fill="#1A73E8" />
			<path
				d="M14.8109 10.9766C12.8418 13.3154 11.7631 16.2753 11.7656 19.3328C11.7656 21.7748 12.2511 23.7609 13.0529 25.5336L20.953 16.1403L14.8109 10.9766Z"
				fill="#EA4335" />
			<path
				d="M24.7712 14.3672C25.7194 14.3681 26.6476 14.6399 27.4465 15.1507C28.2454 15.6614 28.8818 16.3897 29.2806 17.25C29.6794 18.1102 29.8241 19.0666 29.6976 20.0062C29.5712 20.946 29.1788 21.83 28.5668 22.5543L36.3051 13.3522C34.7167 10.292 31.9784 7.98756 28.6918 6.94531L20.9609 16.1474C21.4268 15.5895 22.0095 15.1409 22.6679 14.8333C23.3264 14.5257 24.0444 14.3666 24.7712 14.3672Z"
				fill="#4285F4" />
			<path
				d="M24.7685 24.3133C22.0248 24.3133 19.796 22.0845 19.796 19.3408C19.7928 18.1726 20.2047 17.0412 20.9582 16.1484L13.0508 25.5417C14.4042 28.5355 16.6478 30.9409 18.9575 33.9714L28.5641 22.5553C28.0973 23.1068 27.516 23.5498 26.8604 23.8534C26.2048 24.157 25.491 24.314 24.7685 24.3133Z"
				fill="#FBBC04" />
			<path
				d="M28.3728 37.0842C32.7128 30.3022 37.7662 27.2202 37.7662 19.3348C37.7662 17.1722 37.2365 15.1347 36.3023 13.3398L18.9648 33.9728C19.7004 34.9363 20.4433 35.9588 21.1642 37.0916C23.7976 41.1667 23.0693 43.6088 24.7685 43.6088C26.4677 43.6088 25.7395 41.1593 28.3728 37.0842Z"
				fill="#34A853" />
		</g>
	</g>
	<defs>
		<filter id="filter0_i_4510_31846" x="-0.1875" y="-1.1875" width="50.375"
			height="51.375" filterUnits="userSpaceOnUse"
			color-interpolation-filters="sRGB">
			<feFlood flood-opacity="0" result="BackgroundImageFix" />
			<feBlend mode="normal" in="SourceGraphic" in2="BackgroundImageFix"
				result="shape" />
			<feColorMatrix in="SourceAlpha" type="matrix"
				values="0 0 0 0 0 0 0 0 0 0 0 0 0 0 0 0 0 0 127 0" result="hardAlpha" />
			<feOffset dy="-1" />
			<feGaussianBlur stdDeviation="0.5" />
			<feComposite in2="hardAlpha" operator="arithmetic" k2="-1" k3="1" />
			<feColorMatrix type="matrix"
				values="0 0 0 0 0 0 0 0 0 0 0 0 0 0 0 0 0 0 0.12 0" />
			<feBlend mode="normal" in2="shape" result="effect1_innerShadow_4510_31846" />
		</filter>
		<clipPath id="clip0_4510_31846">
			<rect width="50" height="50" fill="white" />
		</clipPath>
	</defs>
</svg>