<svg class="soc-icon" xmlns="http://www.w3.org/2000/svg" width="50" height="50"
	viewBox="0 0 50 50" fill="none">
	<g clip-path="url(#clip0_4510_31832)">
		<g filter="url(#filter0_i_4510_31832)">
			<path
				d="M11.3095 0H38.6905C44.9405 0 50 5.05952 50 11.3095V38.6905C50 44.9405 44.9405 50 38.6905 50H11.3095C5.05952 50 0 44.9405 0 38.6905V11.3095C0 5.05952 5.05952 0 11.3095 0Z"
				fill="url(#paint0_linear_4510_31832)" />
			<path
				d="M9.17766 13.7046C9.06003 12.1163 9.7071 10.9987 11.06 10.1751C11.6483 9.82218 12.2365 9.41043 12.8247 9.05749C13.8835 8.41043 14.8835 8.58693 15.5894 9.64574C16.8247 11.4692 18.0012 13.234 19.2365 15.0575C20.1188 16.3516 20.06 17.234 19.06 18.4104C18.7659 18.7634 18.4718 19.1163 18.2365 19.4692C17.413 20.5281 17.3542 21.4692 18.1188 22.5869C19.06 23.8811 20.1188 25.1163 21.1777 26.3516C22.8247 28.234 24.7659 29.8222 26.8247 31.3516C27.9424 32.1751 29.0012 32.1163 30.1188 31.4104C30.4718 31.1751 30.8835 30.881 31.2365 30.6457C32.2953 29.8222 33.1188 29.7634 34.2953 30.4692C36.1188 31.6457 38.0012 32.7634 39.8247 33.9399C41.1777 34.7634 41.413 35.6457 40.7071 37.0575C40.2953 37.8222 39.8247 38.5281 39.2953 39.234C38.5306 40.3516 37.413 40.7046 36.1188 40.7046C34.5306 40.7634 33.06 40.3516 31.6483 39.7634C27.7071 38.1751 24.2365 35.8222 21.1188 32.9987C17.2953 29.5869 14.0012 25.7046 11.5306 21.1751C10.4718 19.1751 9.58941 17.1163 9.29535 14.8811C9.23647 14.4692 9.23647 14.0575 9.17766 13.7046Z"
				fill="white" />
		</g>
	</g>
	<defs>
		<filter id="filter0_i_4510_31832" x="0" y="-1" width="50" height="51"
			filterUnits="userSpaceOnUse" color-interpolation-filters="sRGB">
			<feFlood flood-opacity="0" result="BackgroundImageFix" />
			<feBlend mode="normal" in="SourceGraphic" in2="BackgroundImageFix"
				result="shape" />
			<feColorMatrix in="SourceAlpha" type="matrix"
				values="0 0 0 0 0 0 0 0 0 0 0 0 0 0 0 0 0 0 127 0" result="hardAlpha" />
			<feOffset dy="-1" />
			<feGaussianBlur stdDeviation="0.5" />
			<feComposite in2="hardAlpha" operator="arithmetic" k2="-1" k3="1" />
			<feColorMatrix type="matrix"
				values="0 0 0 0 0 0 0 0 0 0 0 0 0 0 0 0 0 0 0.12 0" />
			<feBlend mode="normal" in2="shape" result="effect1_innerShadow_4510_31832" />
		</filter>
		<linearGradient id="paint0_linear_4510_31832" x1="25" y1="0" x2="25" y2="50"
			gradientUnits="userSpaceOnUse">
			<stop stop-color="#8BFB6B" />
			<stop offset="1" stop-color="#19DB1C" />
		</linearGradient>
		<clipPath id="clip0_4510_31832">
			<rect width="50" height="50" fill="white" />
		</clipPath>
	</defs>
</svg>