<svg xmlns="http://www.w3.org/2000/svg" width="50" height="50" viewBox="0 0 50 50" fill="none">
	<g clip-path="url(#clip0_4510_40054)">
		<g filter="url(#filter0_i_4510_40054)">
			<path
				d="M11.3095 0H38.6905C44.9405 0 50 5.05952 50 11.3095V38.6905C50 44.9405 44.9405 50 38.6905 50H11.3095C5.05952 50 0 44.9405 0 38.6905V11.3095C0 5.05952 5.05952 0 11.3095 0Z"
				fill="url(#paint0_linear_4510_40054)" />
			<path
				d="M7.35156 42.649C7.46925 42.1784 7.58688 41.8255 7.64569 41.4725C8.35156 39.0019 8.99862 36.5314 9.64569 34.0607C9.7045 33.8255 9.7045 33.5314 9.58687 33.3549C8.35156 31.1784 7.7045 28.8255 7.46925 26.296C7.23394 23.5902 7.64569 20.9431 8.64569 18.4137C10.2339 14.5314 12.881 11.5902 16.5281 9.53136C18.881 8.23723 21.4104 7.53136 24.1163 7.41367C28.7633 7.23723 32.8222 8.59017 36.3516 11.649C39.5869 14.4725 41.6457 18.0019 42.2339 22.2372C42.9986 27.4725 41.7045 32.1196 38.2927 36.1784C35.4104 39.5902 31.7045 41.649 27.2339 42.2372C23.7633 42.7078 20.4104 42.2372 17.2339 40.5902C16.7045 40.3549 16.2928 40.296 15.7045 40.4137C13.1163 41.1195 10.5281 41.7666 7.93981 42.4725C7.881 42.5314 7.64569 42.5902 7.35156 42.649ZM24.5869 10.2372C24.1163 10.296 23.1751 10.3549 22.2928 10.4725C18.9986 11.1196 16.1751 12.7078 13.9398 15.2372C11.3516 18.2372 10.1163 21.7666 10.3516 25.7078C10.4692 28.296 11.2927 30.649 12.7045 32.8255C12.8222 33.0019 12.8222 33.2372 12.7633 33.4725C12.4104 34.8255 12.0574 36.1784 11.6457 37.5314C11.5869 37.7666 11.5281 37.9431 11.4693 38.1784C11.4693 38.2372 11.6457 38.4137 11.7045 38.4137C11.8222 38.4137 11.9986 38.3549 12.1751 38.296C13.5869 37.9431 15.0574 37.5314 16.4693 37.1784C16.7633 37.1196 17.1163 37.1784 17.3516 37.296C20.1751 38.9431 23.2339 39.649 26.4692 39.296C30.4692 38.8843 33.7633 37.0607 36.2339 34.0019C38.6457 31.0019 39.7633 27.5902 39.4692 23.7078C39.2339 20.3549 37.9986 17.4137 35.7045 14.9431C32.9398 11.8843 29.2927 10.296 24.5869 10.2372Z"
				fill="white" />
			<path
				d="M29.5912 33.2363C28.2383 33.2951 27.0618 32.7657 25.8854 32.2951C23.8266 31.5303 22.0619 30.2363 20.5324 28.648C19.1795 27.2951 17.9442 25.8245 17.0618 24.1186C16.1795 22.5892 15.8266 20.9422 16.4148 19.2363C16.7089 18.4127 17.2383 17.7068 17.8854 17.1186C18.5324 16.5892 19.2971 16.7068 20.0618 16.8833C20.2383 16.9422 20.3559 17.1186 20.4736 17.2951C21.003 18.4715 21.5324 19.648 22.003 20.8833C22.1207 21.1186 22.0618 21.4715 21.8854 21.7068C21.6501 22.1186 21.2971 22.5303 20.9442 22.8833C20.5324 23.3539 20.4736 23.5303 20.8266 24.0598C22.2383 26.4715 24.2383 28.1774 26.8266 29.1774C27.1795 29.2951 27.4148 29.2363 27.6501 29.001C28.0618 28.4715 28.5324 27.9422 28.9442 27.4715C29.2971 27.001 29.4736 26.9422 30.0618 27.1774C30.5324 27.3539 30.9442 27.5892 31.4148 27.7657C32.0619 28.0598 32.7089 28.4127 33.3559 28.7068C33.7677 28.8833 33.8854 29.2363 33.8854 29.648C33.7089 31.648 32.1207 33.1186 30.0618 33.1774C29.8854 33.2363 29.7089 33.2363 29.5912 33.2363Z"
				fill="white" />
		</g>
	</g>
	<defs>
		<filter id="filter0_i_4510_40054" x="0" y="-1" width="50" height="51"
			filterUnits="userSpaceOnUse" color-interpolation-filters="sRGB">
			<feFlood flood-opacity="0" result="BackgroundImageFix" />
			<feBlend mode="normal" in="SourceGraphic" in2="BackgroundImageFix" result="shape" />
			<feColorMatrix in="SourceAlpha" type="matrix"
				values="0 0 0 0 0 0 0 0 0 0 0 0 0 0 0 0 0 0 127 0" result="hardAlpha" />
			<feOffset dy="-1" />
			<feGaussianBlur stdDeviation="0.5" />
			<feComposite in2="hardAlpha" operator="arithmetic" k2="-1" k3="1" />
			<feColorMatrix type="matrix" values="0 0 0 0 0 0 0 0 0 0 0 0 0 0 0 0 0 0 0.12 0" />
			<feBlend mode="normal" in2="shape" result="effect1_innerShadow_4510_40054" />
		</filter>
		<linearGradient id="paint0_linear_4510_40054" x1="25" y1="0" x2="25" y2="50"
			gradientUnits="userSpaceOnUse">
			<stop stop-color="#00FF6A" />
			<stop offset="1" stop-color="#00D31D" />
		</linearGradient>
		<clipPath id="clip0_4510_40054">
			<rect width="50" height="50" fill="white" />
		</clipPath>
	</defs>
</svg>