<svg width="19" height="20" viewBox="0 0 19 20" fill="none" xmlns="http://www.w3.org/2000/svg">
<path d="M14.9492 8.97159C14.9492 8.89347 14.8853 8.82955 14.8072 8.82955H13.7418C13.6637 8.82955 13.5998 8.89347 13.5998 8.97159C13.5998 11.4627 11.581 13.4815 9.08984 13.4815C6.59872 13.4815 4.5799 11.4627 4.5799 8.97159C4.5799 8.89347 4.51598 8.82955 4.43786 8.82955H3.37251C3.29439 8.82955 3.23047 8.89347 3.23047 8.97159C3.23047 11.967 5.47834 14.4386 8.37962 14.7884V16.6065H5.79972C5.55646 16.6065 5.36115 16.8604 5.36115 17.1747V17.8139C5.36115 17.892 5.41087 17.956 5.47124 17.956H12.7085C12.7688 17.956 12.8185 17.892 12.8185 17.8139V17.1747C12.8185 16.8604 12.6232 16.6065 12.38 16.6065H9.72905V14.7972C12.6641 14.4776 14.9492 11.9918 14.9492 8.97159ZM9.08984 11.9901C10.7571 11.9901 12.1083 10.6548 12.1083 9.0071V5.02983C12.1083 3.3821 10.7571 2.04688 9.08984 2.04688C7.42259 2.04688 6.07138 3.3821 6.07138 5.02983V9.0071C6.07138 10.6548 7.42259 11.9901 9.08984 11.9901ZM7.42081 5.02983C7.42081 4.13139 8.16477 3.39631 9.08984 3.39631C10.0149 3.39631 10.7589 4.13139 10.7589 5.02983V9.0071C10.7589 9.90554 10.0149 10.6406 9.08984 10.6406C8.16477 10.6406 7.42081 9.90554 7.42081 9.0071V5.02983Z" fill="#039A00"/>
</svg>
