<svg width="19" height="20" viewBox="0 0 19 20" fill="none" xmlns="http://www.w3.org/2000/svg">
<path d="M4.8554 13.979H14.2031C14.5045 13.979 14.7935 13.8593 15.0067 13.6462C15.2198 13.4331 15.3395 13.1441 15.3395 12.8427V5.45632C15.3395 5.15494 15.2198 4.8659 15.0067 4.65279C14.7935 4.43968 14.5045 4.31996 14.2031 4.31996H3.97585C3.67447 4.31996 3.38543 4.43968 3.17232 4.65279C2.95921 4.8659 2.83949 5.15494 2.83949 5.45632V15.5927L4.8554 13.979ZM5.25426 15.1154L2.62585 17.2177C2.54231 17.2844 2.44163 17.3262 2.3354 17.3382C2.22917 17.3503 2.12169 17.3322 2.02531 17.2859C1.92894 17.2396 1.84758 17.167 1.79059 17.0766C1.73359 16.9861 1.70328 16.8814 1.70312 16.7745V5.45632C1.70312 4.85356 1.94257 4.27548 2.36879 3.84926C2.79501 3.42304 3.37309 3.18359 3.97585 3.18359H14.2031C14.8059 3.18359 15.384 3.42304 15.8102 3.84926C16.2364 4.27548 16.4759 4.85356 16.4759 5.45632V12.8427C16.4759 13.4454 16.2364 14.0235 15.8102 14.4497C15.384 14.876 14.8059 15.1154 14.2031 15.1154H5.25426Z" fill="#039A00" stroke="#039A00" stroke-width="0.2"/>
<path d="M9.08771 9.77131C8.84661 9.77131 8.61538 9.67553 8.44489 9.50504C8.2744 9.33455 8.17862 9.10332 8.17862 8.86222C8.17862 8.62111 8.2744 8.38988 8.44489 8.21939C8.61538 8.0489 8.84661 7.95312 9.08771 7.95312C9.32882 7.95313 9.56005 8.0489 9.73054 8.21939C9.90102 8.38988 9.9968 8.62111 9.9968 8.86222C9.9968 9.10332 9.90102 9.33455 9.73054 9.50504C9.56005 9.67553 9.32882 9.77131 9.08771 9.77131ZM12.4968 9.77131C12.2557 9.77131 12.0245 9.67553 11.854 9.50504C11.6835 9.33455 11.5877 9.10332 11.5877 8.86222C11.5877 8.62111 11.6835 8.38988 11.854 8.21939C12.0245 8.0489 12.2557 7.95312 12.4968 7.95312C12.7379 7.95313 12.9691 8.0489 13.1396 8.21939C13.3101 8.38988 13.4059 8.62111 13.4059 8.86222C13.4059 9.10332 13.3101 9.33455 13.1396 9.50504C12.9691 9.67553 12.7379 9.77131 12.4968 9.77131ZM5.67862 9.77131C5.43752 9.77131 5.20629 9.67553 5.0358 9.50504C4.86531 9.33455 4.76953 9.10332 4.76953 8.86222C4.76953 8.62111 4.86531 8.38988 5.0358 8.21939C5.20629 8.0489 5.43752 7.95312 5.67862 7.95312C5.91973 7.95313 6.15096 8.0489 6.32145 8.21939C6.49193 8.38988 6.58771 8.62111 6.58771 8.86222C6.58771 9.10332 6.49193 9.33455 6.32145 9.50504C6.15096 9.67553 5.91973 9.77131 5.67862 9.77131Z" fill="#039A00" stroke="#039A00" stroke-width="0.2"/>
</svg>
