<svg width="21" height="21" viewBox="0 0 21 21" fill="none" xmlns="http://www.w3.org/2000/svg">
<rect x="2.57812" y="5.34375" width="14.6082" height="10.3117" fill="white"/>
<path d="M19.2417 5.34338L16.8487 3.96174L15.4675 1.56914H12.7046L10.3116 0.1875L7.91867 1.56914H5.15582L3.77418 3.9621L1.38164 5.34338V8.10624L0 10.4992L1.38164 12.8922V15.655L3.7746 17.0367L5.15624 19.4296H7.91909L10.3117 20.8109L12.7047 19.4293H15.4675L16.8492 17.0363L19.2421 15.6547V12.8918L20.6238 10.4988L19.2421 8.10588V5.34338H19.2417ZM9.38096 14.7197C9.18869 14.9119 8.93538 15.0054 8.68321 15.0019C8.43097 15.0055 8.17772 14.9119 7.98545 14.7197L4.96965 11.7039C4.59187 11.3261 4.59187 10.7132 4.96965 10.3354L5.76802 9.53708C6.1458 9.15929 6.75866 9.15929 7.13644 9.53708L8.68321 11.0838L13.4866 6.2801C13.8644 5.90231 14.4772 5.90231 14.855 6.2801L15.6534 7.07847C16.0312 7.45625 16.0312 8.06911 15.6534 8.44689L9.38096 14.7197Z" fill="url(#paint0_linear_3866_18708)"/>
<defs>
<linearGradient id="paint0_linear_3866_18708" x1="20.4373" y1="19.4443" x2="-3.27987" y2="19.1496" gradientUnits="userSpaceOnUse">
<stop offset="0.116616" stop-color="#1D4ED8"/>
<stop offset="0.931232" stop-color="#5AD7FE"/>
</linearGradient>
</defs>
</svg>
