<svg width="15" height="16" viewBox="0 0 15 16" fill="none" xmlns="http://www.w3.org/2000/svg">
<path d="M7.5 1.90625C5.1709 1.90625 3.28125 3.70478 3.28125 5.91992C3.28125 8.46875 6.09375 12.5079 7.12646 13.903C7.16933 13.9619 7.22552 14.0098 7.29043 14.0429C7.35535 14.0759 7.42716 14.0931 7.5 14.0931C7.57284 14.0931 7.64465 14.0759 7.70957 14.0429C7.77448 14.0098 7.83067 13.9619 7.87354 13.903C8.90625 12.5085 11.7188 8.4708 11.7188 5.91992C11.7188 3.70478 9.8291 1.90625 7.5 1.90625Z" stroke="#0687BE" stroke-width="1.5" stroke-linecap="round" stroke-linejoin="round"/>
<path d="M7.5 7.53125C8.27665 7.53125 8.90625 6.90165 8.90625 6.125C8.90625 5.34835 8.27665 4.71875 7.5 4.71875C6.72335 4.71875 6.09375 5.34835 6.09375 6.125C6.09375 6.90165 6.72335 7.53125 7.5 7.53125Z" stroke="#0687BE" stroke-width="1.5" stroke-linecap="round" stroke-linejoin="round"/>
</svg>
