<svg width="19" height="19" viewBox="0 0 19 19" fill="none" xmlns="http://www.w3.org/2000/svg">
<g clip-path="url(#clip0_3866_18925)">
<path d="M15.4613 9.55688C16.2552 8.92882 16.7775 8.01825 16.9196 7.01423C17.0617 6.01021 16.8128 4.98987 16.2244 4.16506C15.6361 3.34025 14.7536 2.77434 13.7602 2.58483C12.7667 2.39532 11.7386 2.59677 10.8894 3.14735C10.5335 2.577 10.0566 2.09241 9.49249 1.72816C8.92841 1.36391 8.29112 1.12896 7.62609 1.04008C6.96105 0.951198 6.28465 1.01057 5.64513 1.21396C5.00561 1.41735 4.41872 1.75975 3.92633 2.21674C3.43393 2.67372 3.04816 3.23403 2.79654 3.85771C2.54491 4.48139 2.43362 5.15306 2.47061 5.82482C2.5076 6.49658 2.69196 7.15189 3.01053 7.74399C3.32911 8.33609 3.77405 8.8504 4.31362 9.25025C3.03362 9.77903 1.93971 10.6782 1.17144 11.833C0.403169 12.9878 -0.00463858 14.346 3.98059e-05 15.7342C3.98059e-05 16.2909 0.228633 17.0977 1.31816 17.7764C2.62144 18.5921 4.81831 19 7.01518 19C9.12299 19 11.2308 18.6219 12.5489 17.8687H12.9556C14.8675 17.8687 17.2336 17.4996 18.3439 16.4308C18.5434 16.256 18.7046 16.0418 18.8175 15.8015C18.9304 15.5612 18.9926 15.3001 19 15.0346C18.9989 13.8768 18.6644 12.7439 18.0366 11.7721C17.4089 10.8004 16.5146 10.0311 15.4613 9.55688ZM12.9942 3.74276C13.4626 3.74288 13.9231 3.863 14.3322 4.0917C14.7412 4.3204 15.0853 4.65011 15.3316 5.04955C15.5779 5.44899 15.7184 5.90492 15.7397 6.37408C15.761 6.84325 15.6624 7.31009 15.4533 7.73033C15.2442 8.15056 14.9315 8.51026 14.5448 8.7753C14.1582 9.04033 13.7105 9.20192 13.2441 9.24473C12.7777 9.28753 12.3081 9.21015 11.8799 9.0199C11.4517 8.82966 11.0791 8.53287 10.7974 8.15768C11.18 7.59429 11.432 6.95209 11.5348 6.27825C11.6375 5.60442 11.5884 4.91606 11.3911 4.26373C11.8575 3.92515 12.4185 3.74283 12.9942 3.74276ZM10.4352 9.59856C10.2057 9.47058 9.96984 9.35433 9.72861 9.25025C9.81768 9.18475 9.90674 9.11628 9.99283 9.04186C10.1535 9.2298 10.3314 9.40223 10.5242 9.55688L10.4352 9.59856ZM3.64269 5.57065C3.64269 4.90059 3.84083 4.24559 4.21206 3.68846C4.58328 3.13133 5.11092 2.6971 5.72825 2.44068C6.34558 2.18426 7.02487 2.11717 7.68022 2.24789C8.33557 2.37861 8.93755 2.70127 9.41003 3.17507C9.88251 3.64887 10.2043 4.25253 10.3346 4.90971C10.465 5.56689 10.3981 6.24807 10.1424 6.86712C9.88668 7.48617 9.45365 8.01528 8.89807 8.38754C8.34249 8.75981 7.68931 8.9585 7.02112 8.9585C6.12534 8.95771 5.26648 8.60052 4.63308 7.96535C3.99967 7.33017 3.64347 6.46892 3.64269 5.57065ZM1.95347 16.7643C1.45176 16.4517 1.18754 16.1063 1.18754 15.7342C1.18363 14.3775 1.65174 13.062 2.51122 12.0143C3.3707 10.9665 4.56771 10.2523 5.89597 9.9945C6.63353 10.189 7.40871 10.189 8.14627 9.9945C9.4737 10.2529 10.6697 10.9676 11.5281 12.0153C12.3864 13.0631 12.8535 14.3782 12.8488 15.7342C12.8488 16.1034 12.5964 16.4457 12.0977 16.7583H12.0799C9.85033 18.1575 4.18003 18.1545 1.95347 16.7643ZM17.5305 15.5734C16.9367 16.1689 15.488 16.5588 13.8077 16.6571C13.9575 16.3705 14.036 16.0518 14.0363 15.7283C14.0389 14.7189 13.8235 13.721 13.4048 12.8031C12.9861 11.8853 12.3741 11.0693 11.6108 10.4113C11.7533 10.3696 11.9077 10.3339 12.0353 10.3071C12.349 10.3856 12.671 10.4256 12.9942 10.4262C13.3147 10.4252 13.6338 10.3842 13.9442 10.3041C15.0356 10.5213 16.0179 11.1117 16.7234 11.9745C17.4289 12.8373 17.8138 13.9189 17.8125 15.0346C17.8065 15.1402 17.7782 15.2434 17.7296 15.3373C17.681 15.4311 17.6131 15.5137 17.5305 15.5794V15.5734Z" fill="#1B193F" stroke="#1B193F" stroke-width="0.1"/>
</g>
<defs>
<clipPath id="clip0_3866_18925">
<rect width="19" height="19" fill="white"/>
</clipPath>
</defs>
</svg>
