<svg width="21" height="18" viewBox="0 0 21 18" fill="none" xmlns="http://www.w3.org/2000/svg">
<path d="M4.29246 6.33187C5.51465 6.33187 6.51461 5.2447 6.51461 3.91593C6.51461 2.58717 5.51465 1.5 4.29246 1.5C3.07028 1.5 2.07031 2.58717 2.07031 3.91593C2.07031 5.2447 3.07028 6.33187 4.29246 6.33187ZM4.29246 2.13418C5.2091 2.13418 5.95908 2.94956 5.95908 3.94613C5.95908 4.9427 5.2091 5.75808 4.29246 5.75808C3.37583 5.75808 2.62585 4.9427 2.62585 3.94613C2.62585 2.94956 3.37583 2.13418 4.29246 2.13418Z" fill="#039A00" stroke="#039A00" stroke-width="0.5"/>
<path d="M17.3415 6.33203H16.0082C15.1193 6.33203 14.3138 6.93601 13.9805 7.84199C13.8138 8.35538 13.4527 9.04996 12.8139 9.44254C11.6472 10.1673 10.3417 9.98613 10.0917 10.0163C9.34176 9.98613 8.67511 9.77474 8.11958 9.44254C7.48071 9.04996 7.11961 8.35538 6.95295 7.84199C6.6474 6.93601 5.8141 6.33203 4.92523 6.33203H3.61972C2.42532 6.33203 1.45312 7.389 1.45312 8.68757V15.4522C1.45312 15.6334 1.56423 15.7542 1.73089 15.7542H6.81406C6.98072 15.7542 7.09183 15.6334 7.09183 15.4522V10.9223C8.89733 12.1605 11.9806 12.1907 13.8138 10.9223V15.4522C13.8138 15.6334 13.9249 15.7542 14.0916 15.7542H19.1748C19.3414 15.7542 19.4525 15.6334 19.4525 15.4522V8.68757C19.4803 7.389 18.5081 6.33203 17.3415 6.33203ZM7.0085 10.1069C6.92517 10.0465 6.81406 10.0163 6.70296 10.0767C6.61962 10.1371 6.53629 10.2277 6.53629 10.3485V15.1502H2.03644V8.68757C2.03644 7.72119 2.75864 6.93601 3.6475 6.93601H4.98079C5.64743 6.93601 6.23075 7.389 6.48074 8.05338C6.78629 8.92916 7.25849 9.56334 7.89736 9.95593C8.34179 10.2277 8.86955 10.4391 9.42509 10.5297C9.42509 10.5599 9.39731 10.5901 9.39731 10.5901C9.34176 10.7713 9.31398 10.9525 9.36954 11.1639C8.4529 11.0431 7.64737 10.6807 7.0085 10.1069ZM18.9248 15.1502H14.3972V10.3485C14.3972 10.2277 14.3416 10.1371 14.2305 10.0767C14.1472 10.0163 14.0083 10.0465 13.9249 10.1069C12.9528 10.9525 11.675 11.3451 10.1195 11.2545C9.75841 11.2243 9.75841 10.6505 10.1195 10.6203C11.1473 10.6807 12.175 10.5297 13.0916 9.95593C13.7027 9.56334 14.2027 8.89896 14.5083 8.05338C14.7305 7.389 15.3416 6.93601 16.0082 6.93601H17.3415C18.2304 6.93601 18.9526 7.72119 18.9526 8.68757V15.1502H18.9248Z" fill="#039A00" stroke="#039A00" stroke-width="0.5"/>
<path d="M16.6714 6.33187C17.8936 6.33187 18.8935 5.2447 18.8935 3.91593C18.8935 2.58717 17.8936 1.5 16.6714 1.5C15.4492 1.5 14.4492 2.58717 14.4492 3.91593C14.4492 5.2447 15.4492 6.33187 16.6714 6.33187ZM16.6714 2.13418C17.588 2.13418 18.338 2.94956 18.338 3.94613C18.338 4.9427 17.588 5.75808 16.6714 5.75808C15.7547 5.75808 15.0048 4.9427 15.0048 3.94613C15.0048 2.94956 15.7547 2.13418 16.6714 2.13418Z" fill="#039A00" stroke="#039A00" stroke-width="0.5"/>
</svg>
