<svg xmlns="http://www.w3.org/2000/svg" width="31" height="30" viewBox="0 0 31 30" fill="none">
	<path
		d="M21.125 2.10938H9.875C9.19124 2.10938 8.53548 2.381 8.05199 2.86449C7.5685 3.34798 7.29688 4.00374 7.29688 4.6875V25.3125C7.29688 25.9963 7.5685 26.652 8.05199 27.1355C8.53548 27.619 9.19124 27.8906 9.875 27.8906H21.125C21.8088 27.8906 22.4645 27.619 22.948 27.1355C23.4315 26.652 23.7031 25.9963 23.7031 25.3125V4.6875C23.7031 4.00374 23.4315 3.34798 22.948 2.86449C22.4645 2.381 21.8088 2.10938 21.125 2.10938ZM8.70312 7.26562H22.2969V22.7344H8.70312V7.26562ZM9.875 3.51562H21.125C21.4358 3.51562 21.7339 3.63909 21.9536 3.85886C22.1734 4.07863 22.2969 4.3767 22.2969 4.6875V5.85938H8.70312V4.6875C8.70312 4.3767 8.82659 4.07863 9.04636 3.85886C9.26613 3.63909 9.5642 3.51562 9.875 3.51562ZM21.125 26.4844H9.875C9.5642 26.4844 9.26613 26.3609 9.04636 26.1411C8.82659 25.9214 8.70312 25.6233 8.70312 25.3125V24.1406H22.2969V25.3125C22.2969 25.6233 22.1734 25.9214 21.9536 26.1411C21.7339 26.3609 21.4358 26.4844 21.125 26.4844Z"
		fill="#1B6DE9" />
</svg>