<svg width="30" height="30" viewBox="0 0 30 30" fill="none" xmlns="http://www.w3.org/2000/svg">
<path fill-rule="evenodd" clip-rule="evenodd" d="M8.06 2.1875C6.9375 2.1875 6 2.1875 5.2575 2.2875C4.4725 2.3925 3.76375 2.625 3.195 3.19375C2.625 3.76375 2.3925 4.4725 2.2875 5.25625C2.1875 6 2.1875 6.9375 2.1875 8.06V8.19C2.1875 9.3125 2.1875 10.25 2.2875 10.9925C2.3925 11.7775 2.625 12.4862 3.19375 13.055C3.76375 13.625 4.4725 13.8575 5.25625 13.9625C6 14.0625 6.9375 14.0625 8.06 14.0625H8.19C9.3125 14.0625 10.25 14.0625 10.9925 13.9625C11.7775 13.8575 12.4862 13.625 13.055 13.055C13.625 12.4862 13.8575 11.7775 13.9625 10.9925C14.0625 10.25 14.0625 9.3125 14.0625 8.19V8.06C14.0625 6.9375 14.0625 6 13.9625 5.2575C13.8575 4.4725 13.625 3.76375 13.055 3.195C12.4862 2.625 11.7775 2.3925 10.9925 2.2875C10.25 2.1875 9.3125 2.1875 8.19 2.1875H8.06ZM4.52 4.52C4.6825 4.3575 4.93 4.22375 5.5075 4.145C6.11 4.065 6.92 4.0625 8.125 4.0625C9.33 4.0625 10.14 4.065 10.7438 4.14625C11.32 4.22375 11.5675 4.3575 11.73 4.52125C11.8925 4.68375 12.0262 4.93 12.105 5.50625C12.185 6.11 12.1875 6.92 12.1875 8.125C12.1875 9.33 12.185 10.14 12.1037 10.7438C12.0262 11.32 11.8925 11.5675 11.7288 11.73C11.5663 11.8925 11.32 12.0262 10.7438 12.105C10.14 12.185 9.33 12.1875 8.125 12.1875C6.92 12.1875 6.11 12.185 5.50625 12.1037C4.93 12.0262 4.6825 11.8925 4.52 11.7288C4.3575 11.5663 4.22375 11.32 4.145 10.7438C4.065 10.14 4.0625 9.33 4.0625 8.125C4.0625 6.92 4.065 6.11 4.14625 5.50625C4.22375 4.93 4.3575 4.6825 4.52125 4.52H4.52ZM21.81 15.9375C20.6863 15.9375 19.75 15.9375 19.0075 16.0375C18.2225 16.1425 17.5138 16.375 16.945 16.945C16.375 17.5138 16.1425 18.2225 16.0375 19.0075C15.9375 19.75 15.9375 20.6863 15.9375 21.81V21.94C15.9375 23.0637 15.9375 24 16.0375 24.7425C16.1425 25.5275 16.375 26.2362 16.945 26.805C17.5138 27.375 18.2225 27.6075 19.0075 27.7125C19.75 27.8125 20.6863 27.8125 21.81 27.8125H21.94C23.0625 27.8125 24 27.8125 24.7425 27.7125C25.5275 27.6075 26.2362 27.375 26.805 26.805C27.375 26.2362 27.6075 25.5275 27.7125 24.7425C27.8125 24 27.8125 23.0637 27.8125 21.94V21.81C27.8125 20.6875 27.8125 19.75 27.7125 19.0075C27.6075 18.2225 27.375 17.5138 26.805 16.945C26.2362 16.375 25.5275 16.1425 24.7425 16.0375C24 15.9375 23.0637 15.9375 21.94 15.9375H21.81ZM18.27 18.27C18.4325 18.1075 18.68 17.9738 19.2575 17.895C19.86 17.815 20.67 17.8125 21.875 17.8125C23.08 17.8125 23.89 17.815 24.4937 17.895C25.07 17.9738 25.3175 18.1075 25.48 18.27C25.6425 18.4325 25.7763 18.68 25.855 19.2575C25.935 19.86 25.9375 20.67 25.9375 21.875C25.9375 23.08 25.935 23.89 25.8538 24.4937C25.7763 25.07 25.6425 25.3175 25.4787 25.48C25.3162 25.6425 25.07 25.7763 24.4937 25.855C23.89 25.935 23.08 25.9375 21.875 25.9375C20.67 25.9375 19.86 25.935 19.2563 25.8538C18.68 25.7763 18.4325 25.6425 18.27 25.4787C18.1075 25.3162 17.9738 25.07 17.895 24.4937C17.815 23.89 17.8125 23.08 17.8125 21.875C17.8125 20.67 17.815 19.86 17.895 19.2563C17.9738 18.68 18.1075 18.4325 18.27 18.27ZM8.06 15.9375H8.19C9.3125 15.9375 10.25 15.9375 10.9925 16.0375C11.7775 16.1425 12.4862 16.375 13.055 16.945C13.625 17.5138 13.8575 18.2225 13.9625 19.0075C14.0625 19.75 14.0625 20.6863 14.0625 21.81V21.94C14.0625 23.0637 14.0625 24 13.9625 24.7425C13.8575 25.5275 13.625 26.2362 13.055 26.805C12.4862 27.375 11.7775 27.6075 10.9925 27.7125C10.25 27.8125 9.31375 27.8125 8.19 27.8125H8.06C6.9375 27.8125 6 27.8125 5.2575 27.7125C4.4725 27.6075 3.76375 27.375 3.195 26.805C2.625 26.2362 2.3925 25.5275 2.2875 24.7425C2.1875 24 2.1875 23.0637 2.1875 21.94V21.81C2.1875 20.6863 2.1875 19.75 2.2875 19.0075C2.3925 18.2225 2.625 17.5138 3.19375 16.945C3.76375 16.375 4.4725 16.1425 5.25625 16.0375C6 15.9375 6.9375 15.9375 8.06 15.9375ZM5.50625 17.895C4.93 17.9738 4.6825 18.1075 4.52 18.27C4.3575 18.4325 4.22375 18.68 4.145 19.2575C4.065 19.86 4.0625 20.67 4.0625 21.875C4.0625 23.08 4.065 23.89 4.14625 24.4937C4.22375 25.07 4.3575 25.3175 4.52125 25.48C4.68375 25.6425 4.93 25.7763 5.50625 25.855C6.11 25.935 6.92 25.9375 8.125 25.9375C9.33 25.9375 10.14 25.935 10.7438 25.8538C11.32 25.7763 11.5675 25.6425 11.73 25.4787C11.8925 25.3162 12.0262 25.07 12.105 24.4937C12.185 23.89 12.1875 23.08 12.1875 21.875C12.1875 20.67 12.185 19.86 12.1037 19.2563C12.0262 18.68 11.8925 18.4325 11.7288 18.27C11.5663 18.1075 11.32 17.9738 10.7438 17.895C10.14 17.815 9.33 17.8125 8.125 17.8125C6.92 17.8125 6.11 17.815 5.50625 17.895ZM21.81 2.1875C20.6863 2.1875 19.75 2.1875 19.0075 2.2875C18.2225 2.3925 17.5138 2.625 16.945 3.19375C16.375 3.76375 16.1425 4.4725 16.0375 5.25625C15.9375 6 15.9375 6.9375 15.9375 8.06V8.19C15.9375 9.3125 15.9375 10.25 16.0375 10.9925C16.1425 11.7775 16.375 12.4862 16.945 13.055C17.5138 13.625 18.2225 13.8575 19.0075 13.9625C19.75 14.0625 20.6863 14.0625 21.81 14.0625H21.94C23.0637 14.0625 24 14.0625 24.7425 13.9625C25.5275 13.8575 26.2362 13.625 26.805 13.055C27.375 12.4862 27.6075 11.7775 27.7125 10.9925C27.8125 10.25 27.8125 9.3125 27.8125 8.19V8.06C27.8125 6.9375 27.8125 6 27.7125 5.2575C27.6075 4.4725 27.375 3.76375 26.805 3.195C26.2362 2.625 25.5275 2.3925 24.7425 2.2875C24 2.1875 23.0637 2.1875 21.94 2.1875H21.81ZM18.27 4.52C18.4325 4.3575 18.68 4.22375 19.2575 4.145C19.86 4.065 20.67 4.0625 21.875 4.0625C23.08 4.0625 23.89 4.065 24.4937 4.14625C25.07 4.22375 25.3175 4.3575 25.48 4.52125C25.6425 4.68375 25.7763 4.93 25.855 5.50625C25.935 6.11 25.9375 6.92 25.9375 8.125C25.9375 9.33 25.935 10.14 25.8538 10.7438C25.7763 11.32 25.6425 11.5675 25.4787 11.73C25.3162 11.8925 25.07 12.0262 24.4937 12.105C23.89 12.185 23.08 12.1875 21.875 12.1875C20.67 12.1875 19.86 12.185 19.2563 12.1037C18.68 12.0262 18.4325 11.8925 18.27 11.7288C18.1075 11.5663 17.9738 11.32 17.895 10.7438C17.815 10.14 17.8125 9.33 17.8125 8.125C17.8125 6.92 17.815 6.11 17.895 5.50625C17.9738 4.93 18.1075 4.6825 18.27 4.52Z" fill="#1B6DE9"/>
</svg>
