<svg width="31" height="30" viewBox="0 0 31 30" fill="none" xmlns="http://www.w3.org/2000/svg">
<path d="M15.5 2C12.9288 2 10.4154 2.76244 8.27759 4.19089C6.13975 5.61935 4.47351 7.64967 3.48957 10.0251C2.50563 12.4006 2.24819 15.0144 2.7498 17.5362C3.2514 20.0579 4.48953 22.3743 6.30762 24.1924C8.1257 26.0105 10.4421 27.2486 12.9638 27.7502C15.4856 28.2518 18.0994 27.9944 20.4749 27.0104C22.8503 26.0265 24.8806 24.3602 26.3091 22.2224C27.7376 20.0846 28.5 17.5712 28.5 15C28.4962 11.5533 27.1254 8.24894 24.6882 5.81179C22.2511 3.37464 18.9467 2.00379 15.5 2ZM26.8932 18.64H20.8937C21.3288 16.2328 21.3288 13.7672 20.8937 11.36H26.8932C27.6489 13.7278 27.6489 16.2722 26.8932 18.64ZM15.5 26.96C15.432 26.96 15.3647 26.9457 15.3024 26.9182C15.2402 26.8907 15.1844 26.8504 15.1386 26.8001C13.3641 24.8891 12.081 22.4165 11.3933 19.68H19.6067C18.919 22.4165 17.6359 24.8891 15.8614 26.8001C15.8156 26.8504 15.7598 26.8907 15.6976 26.9182C15.6354 26.9457 15.5681 26.96 15.5 26.96ZM11.1645 18.64C10.7052 16.2351 10.7052 13.7649 11.1645 11.36H19.8355C20.2948 13.7649 20.2948 16.2351 19.8355 18.64H11.1645ZM15.5 3.04C15.5681 3.04003 15.6354 3.05426 15.6976 3.0818C15.7598 3.10933 15.8156 3.14956 15.8614 3.1999C17.6359 5.1109 18.919 7.59 19.6067 10.32H11.3933C12.081 7.59 13.3641 5.1109 15.1386 3.1999C15.1844 3.14956 15.2402 3.10933 15.3024 3.0818C15.3647 3.05426 15.432 3.04003 15.5 3.04ZM26.5058 10.32H20.6753C20.037 7.6251 18.8553 5.1564 17.2095 3.1622C19.2422 3.4597 21.1644 4.27409 22.7922 5.52738C24.4199 6.78068 25.6986 8.4309 26.5058 10.32ZM13.7905 3.1622C12.1486 5.1564 10.963 7.6251 10.3247 10.32H4.49421C5.3014 8.4309 6.5801 6.78068 8.20784 5.52738C9.83557 4.27409 11.7578 3.4597 13.7905 3.1622ZM4.10681 11.36H10.1063C9.67124 13.7672 9.67124 16.2328 10.1063 18.64H4.10681C3.35109 16.2722 3.35109 13.7278 4.10681 11.36ZM4.49681 19.68H10.3247C10.963 22.3749 12.1447 24.8436 13.7905 26.8378C11.7578 26.5403 9.83557 25.7259 8.20784 24.4726C6.5801 23.2193 5.3014 21.5691 4.49421 19.68H4.49681ZM17.2121 26.8378C18.854 24.8436 20.0396 22.3749 20.6779 19.68H26.5084C25.701 21.5694 24.4219 23.2199 22.7937 24.4732C21.1654 25.7265 19.2426 26.5407 17.2095 26.8378H17.2121Z" fill="#1B6DE9" stroke="#1B6DE9" stroke-width="0.5"/>
</svg>
