<svg width="19" height="19" viewBox="0 0 19 19" fill="none" xmlns="http://www.w3.org/2000/svg">
<g clip-path="url(#clip0_1755_39122)">
<path d="M15.1407 11.4753V3.86005C15.1407 3.50213 14.8342 3.21094 14.4574 3.21094H4.50799C4.13123 3.21094 3.82471 3.50213 3.82471 3.86005V11.4752C3.82471 11.8332 4.13123 12.1244 4.50799 12.1244H14.4574C14.8342 12.1244 15.1407 11.8332 15.1407 11.4753ZM4.41037 11.4753V8.50218L5.961 7.02905C5.98584 7.00541 6.0149 7.00188 6.03002 7.00188C6.04514 7.00188 6.07412 7.00541 6.09904 7.02905L6.43272 7.34604C6.54701 7.45469 6.73244 7.45465 6.84686 7.34604C6.96119 7.23738 6.96119 7.06126 6.84682 6.9526L6.51318 6.63565C6.38416 6.51304 6.21256 6.4455 6.03006 6.4455C5.84752 6.4455 5.67596 6.513 5.54689 6.63561L4.41045 7.71527V3.86005C4.41045 3.80892 4.45424 3.76732 4.50807 3.76732H14.4575C14.5113 3.76732 14.5551 3.80892 14.5551 3.86005V11.4752C14.5551 11.5264 14.5113 11.568 14.4575 11.568H14.1719L10.5234 8.10188C10.2569 7.84887 9.8235 7.84887 9.55705 8.10192L8.80693 8.81456L7.78002 7.839C7.66568 7.73034 7.48029 7.73034 7.36584 7.839C7.2515 7.94762 7.2515 8.12377 7.36584 8.23243L8.46182 9.27361C8.554 9.36115 8.67658 9.40939 8.80693 9.40939C8.93729 9.40939 9.0599 9.36115 9.15205 9.27357L9.97123 8.49535C10.0093 8.45921 10.0712 8.45921 10.1093 8.49535L13.3436 11.568H4.50799C4.45416 11.568 4.41037 11.5264 4.41037 11.4753Z" fill="#1B193F"/>
<path d="M17.1062 13.5969V10.0342C17.1062 9.88056 16.9751 9.75598 16.8133 9.75598C16.6515 9.75598 16.5204 9.88052 16.5204 10.0342V13.1775C16.0298 12.9014 15.4581 12.7423 14.8477 12.7423C13.1712 12.7423 11.7842 13.9388 11.5808 15.4799H2.7374C2.57592 15.4799 2.44455 15.3551 2.44455 15.2017V0.83459C2.44455 0.68118 2.57592 0.556381 2.7374 0.556381H16.2276C16.3891 0.556381 16.5204 0.68118 16.5204 0.83459V8.64827C16.5204 8.8019 16.6515 8.92647 16.8133 8.92647C16.9751 8.92647 17.1062 8.80194 17.1062 8.64827V0.83459C17.1062 0.374396 16.7121 0 16.2276 0H2.7374C2.25299 0 1.85889 0.374396 1.85889 0.83459V15.2017C1.85889 15.6619 2.25299 16.0363 2.7374 16.0363H11.5592C11.5906 16.61 11.785 17.1597 12.1271 17.6351C12.2184 17.762 12.4007 17.7944 12.5341 17.7078C12.6676 17.6211 12.7019 17.4479 12.6106 17.3211C12.3026 16.8932 12.1399 16.3918 12.1399 15.8712C12.1399 14.4527 13.3546 13.2987 14.8477 13.2987C16.3408 13.2987 17.5555 14.4527 17.5555 15.8712C17.5555 17.2896 16.3408 18.4436 14.8477 18.4436C14.4026 18.4436 13.9613 18.3389 13.5717 18.1408C13.4291 18.0683 13.2517 18.1193 13.1754 18.2547C13.099 18.3902 13.1528 18.5588 13.2954 18.6313C13.7697 18.8725 14.3065 19 14.8477 19C16.6637 19 18.1412 17.5964 18.1412 15.8711C18.1412 14.9759 17.7427 14.1678 17.1062 13.5969Z" fill="#1B193F"/>
<path d="M14.8479 14.4395C14.6861 14.4395 14.555 14.564 14.555 14.7177V15.6008H13.6254C13.4636 15.6008 13.3325 15.7254 13.3325 15.879C13.3325 16.0327 13.4636 16.1572 13.6254 16.1572H14.555V17.0404C14.555 17.194 14.6861 17.3186 14.8479 17.3186C15.0096 17.3186 15.1407 17.1941 15.1407 17.0404V16.1572H16.0704C16.2321 16.1572 16.3632 16.0327 16.3632 15.879C16.3632 15.7254 16.2321 15.6008 16.0704 15.6008H15.1407V14.7177C15.1407 14.564 15.0096 14.4395 14.8479 14.4395Z" fill="#1B193F"/>
<path d="M4.936 13.4668C4.95843 13.2526 4.79388 13.0618 4.56846 13.0404C4.34305 13.0191 4.14214 13.1755 4.11971 13.3896C4.09728 13.6037 4.26183 13.7946 4.48725 13.8159C4.71266 13.8372 4.91357 13.6809 4.936 13.4668Z" fill="#1B193F"/>
<path d="M6.38619 13.4668C6.40862 13.2526 6.24407 13.0618 6.01866 13.0404C5.79325 13.0191 5.59233 13.1755 5.56991 13.3896C5.54748 13.6037 5.71203 13.7946 5.93744 13.8159C6.16285 13.8372 6.36377 13.6809 6.38619 13.4668Z" fill="#1B193F"/>
<path d="M7.83639 13.4668C7.85882 13.2526 7.69427 13.0618 7.46886 13.0404C7.24344 13.0191 7.04253 13.1755 7.0201 13.3896C6.99767 13.6037 7.16222 13.7946 7.38764 13.8159C7.61305 13.8372 7.81396 13.6809 7.83639 13.4668Z" fill="#1B193F"/>
<path d="M10.6091 2.31228C10.7708 2.31228 10.9019 2.18774 10.9019 2.03407C10.9019 1.8804 10.7708 1.75586 10.6091 1.75586H9.34022C9.17846 1.75586 9.04736 1.8804 9.04736 2.03407C9.04736 2.18774 9.17846 2.31228 9.34022 2.31228H10.6091Z" fill="#1B193F"/>
<path d="M7.83693 2.31228C7.99869 2.31228 8.12979 2.18774 8.12979 2.03407C8.12979 1.8804 7.99869 1.75586 7.83693 1.75586H4.37146C4.20971 1.75586 4.07861 1.8804 4.07861 2.03407C4.07861 2.18774 4.20971 2.31228 4.37146 2.31228H7.83693Z" fill="#1B193F"/>
<path d="M11.9635 7.11323C12.5354 7.11323 13.0006 6.67122 13.0006 6.12791C13.0006 5.58459 12.5354 5.14258 11.9635 5.14258C11.3915 5.14258 10.9263 5.58459 10.9263 6.12791C10.9263 6.67122 11.3915 7.11323 11.9635 7.11323ZM11.9635 5.699C12.2124 5.699 12.4149 5.89141 12.4149 6.12791C12.4149 6.3644 12.2124 6.55682 11.9635 6.55682C11.7145 6.55682 11.512 6.3644 11.512 6.12791C11.5119 5.89145 11.7145 5.699 11.9635 5.699Z" fill="#1B193F"/>
</g>
<defs>
<clipPath id="clip0_1755_39122">
<rect width="19" height="19" fill="white"/>
</clipPath>
</defs>
</svg>
