<svg width="19" height="19" viewBox="0 0 19 19" fill="none" xmlns="http://www.w3.org/2000/svg">
<g clip-path="url(#clip0_1755_39106)">
<path d="M18.375 10.0938C18.3737 8.96495 17.9212 7.87875 17.109 7.05482C16.2968 6.23089 15.1856 5.73072 14 5.65547V3.34281C13.9992 2.9289 13.8257 2.53217 13.5176 2.23949C13.2096 1.94681 12.7919 1.78203 12.3563 1.78125H10.2188C10.1467 1.44597 9.95494 1.14463 9.67591 0.928237C9.39687 0.711842 9.0477 0.59368 8.6875 0.59375H6.1875C5.8273 0.59368 5.47813 0.711842 5.19909 0.928237C4.92006 1.14463 4.72829 1.44597 4.65625 1.78125H2.51875C2.08305 1.78203 1.66544 1.94681 1.35736 2.23949C1.04927 2.53217 0.875826 2.9289 0.875 3.34281V13.9531C0.875 14.0319 0.907924 14.1074 0.966529 14.163C1.02513 14.2187 1.10462 14.25 1.1875 14.25C1.27038 14.25 1.34987 14.2187 1.40847 14.163C1.46708 14.1074 1.5 14.0319 1.5 13.9531V3.34281C1.5 3.08613 1.60733 2.83997 1.79839 2.65847C1.98944 2.47697 2.24856 2.375 2.51875 2.375H4.625V2.67188C4.625 2.90808 4.72377 3.13462 4.89959 3.30164C5.0754 3.46867 5.31386 3.5625 5.5625 3.5625H9.3125C9.56114 3.5625 9.7996 3.46867 9.97541 3.30164C10.1512 3.13462 10.25 2.90808 10.25 2.67188V2.375H12.3563C12.6264 2.375 12.8856 2.47697 13.0766 2.65847C13.2677 2.83997 13.375 3.08613 13.375 3.34281V5.65547C12.1806 5.72106 11.0578 6.21802 10.2367 7.04455C9.41547 7.87108 8.95802 8.96462 8.95802 10.1012C8.95802 11.2377 9.41547 12.3313 10.2367 13.1578C11.0578 13.9843 12.1806 14.4813 13.375 14.5469V16.8595C13.3709 17.1136 13.2618 17.356 13.0711 17.5343C12.8805 17.7126 12.6238 17.8125 12.3563 17.8125H2.51875C2.24856 17.8125 1.98944 17.7105 1.79839 17.529C1.60733 17.3475 1.5 17.1014 1.5 16.8447V15.1406C1.5 15.0619 1.46708 14.9864 1.40847 14.9307C1.34987 14.875 1.27038 14.8438 1.1875 14.8438C1.10462 14.8438 1.02513 14.875 0.966529 14.9307C0.907924 14.9864 0.875 15.0619 0.875 15.1406V16.8447C0.875826 17.2586 1.04927 17.6553 1.35736 17.948C1.66544 18.2407 2.08305 18.4055 2.51875 18.4062H12.3563C12.7919 18.4055 13.2096 18.2407 13.5176 17.948C13.8257 17.6553 13.9992 17.2586 14 16.8447V14.5469C15.1883 14.4715 16.3018 13.9692 17.1143 13.1421C17.9269 12.315 18.3777 11.2251 18.375 10.0938ZM9.625 2.67188C9.625 2.75061 9.59208 2.82612 9.53347 2.8818C9.47487 2.93747 9.39538 2.96875 9.3125 2.96875H5.5625C5.47962 2.96875 5.40013 2.93747 5.34153 2.8818C5.28292 2.82612 5.25 2.75061 5.25 2.67188V2.07812C5.25 1.84192 5.34877 1.61538 5.52459 1.44836C5.7004 1.28133 5.93886 1.1875 6.1875 1.1875H8.6875C8.93614 1.1875 9.1746 1.28133 9.35041 1.44836C9.52623 1.61538 9.625 1.84192 9.625 2.07812V2.67188ZM13.6875 13.9531C12.884 13.9531 12.0986 13.7268 11.4305 13.3027C10.7624 12.8786 10.2417 12.2759 9.93424 11.5707C9.62676 10.8655 9.54631 10.0895 9.70306 9.34082C9.85981 8.59218 10.2467 7.9045 10.8149 7.36476C11.383 6.82502 12.1069 6.45745 12.8949 6.30853C13.683 6.15962 14.4998 6.23605 15.2422 6.52815C15.9845 6.82026 16.619 7.31493 17.0653 7.9496C17.5117 8.58427 17.75 9.33044 17.75 10.0938C17.75 10.6006 17.6449 11.1024 17.4408 11.5707C17.2366 12.0389 16.9374 12.4644 16.5601 12.8227C16.1829 13.1811 15.735 13.4654 15.2422 13.6593C14.7493 13.8533 14.221 13.9531 13.6875 13.9531Z" fill="#1B193F"/>
<path d="M3.0625 5.64062H6.8125C6.89538 5.64062 6.97487 5.60935 7.03347 5.55367C7.09208 5.498 7.125 5.42249 7.125 5.34375C7.125 5.26501 7.09208 5.1895 7.03347 5.13383C6.97487 5.07815 6.89538 5.04688 6.8125 5.04688H3.0625C2.97962 5.04688 2.90013 5.07815 2.84153 5.13383C2.78292 5.1895 2.75 5.26501 2.75 5.34375C2.75 5.42249 2.78292 5.498 2.84153 5.55367C2.90013 5.60935 2.97962 5.64062 3.0625 5.64062Z" fill="#1B193F"/>
<path d="M3.0625 6.82812H6.8125C6.89538 6.82812 6.97487 6.79685 7.03347 6.74117C7.09208 6.6855 7.125 6.60999 7.125 6.53125C7.125 6.45251 7.09208 6.377 7.03347 6.32133C6.97487 6.26565 6.89538 6.23438 6.8125 6.23438H3.0625C2.97962 6.23438 2.90013 6.26565 2.84153 6.32133C2.78292 6.377 2.75 6.45251 2.75 6.53125C2.75 6.60999 2.78292 6.6855 2.84153 6.74117C2.90013 6.79685 2.97962 6.82812 3.0625 6.82812Z" fill="#1B193F"/>
<path d="M3.0625 8.01562H6.8125C6.89538 8.01562 6.97487 7.98435 7.03347 7.92867C7.09208 7.873 7.125 7.79749 7.125 7.71875C7.125 7.64001 7.09208 7.5645 7.03347 7.50883C6.97487 7.45315 6.89538 7.42188 6.8125 7.42188H3.0625C2.97962 7.42188 2.90013 7.45315 2.84153 7.50883C2.78292 7.5645 2.75 7.64001 2.75 7.71875C2.75 7.79749 2.78292 7.873 2.84153 7.92867C2.90013 7.98435 2.97962 8.01562 3.0625 8.01562Z" fill="#1B193F"/>
<path d="M3.0625 9.79688H6.8125C6.89538 9.79688 6.97487 9.7656 7.03347 9.70992C7.09208 9.65425 7.125 9.57874 7.125 9.5C7.125 9.42126 7.09208 9.34575 7.03347 9.29008C6.97487 9.2344 6.89538 9.20312 6.8125 9.20312H3.0625C2.97962 9.20312 2.90013 9.2344 2.84153 9.29008C2.78292 9.34575 2.75 9.42126 2.75 9.5C2.75 9.57874 2.78292 9.65425 2.84153 9.70992C2.90013 9.7656 2.97962 9.79688 3.0625 9.79688Z" fill="#1B193F"/>
<path d="M3.0625 10.9844H6.8125C6.89538 10.9844 6.97487 10.9531 7.03347 10.8974C7.09208 10.8417 7.125 10.7662 7.125 10.6875C7.125 10.6088 7.09208 10.5333 7.03347 10.4776C6.97487 10.4219 6.89538 10.3906 6.8125 10.3906H3.0625C2.97962 10.3906 2.90013 10.4219 2.84153 10.4776C2.78292 10.5333 2.75 10.6088 2.75 10.6875C2.75 10.7662 2.78292 10.8417 2.84153 10.8974C2.90013 10.9531 2.97962 10.9844 3.0625 10.9844Z" fill="#1B193F"/>
<path d="M3.0625 12.1719H6.8125C6.89538 12.1719 6.97487 12.1406 7.03347 12.0849C7.09208 12.0292 7.125 11.9537 7.125 11.875C7.125 11.7963 7.09208 11.7208 7.03347 11.6651C6.97487 11.6094 6.89538 11.5781 6.8125 11.5781H3.0625C2.97962 11.5781 2.90013 11.6094 2.84153 11.6651C2.78292 11.7208 2.75 11.7963 2.75 11.875C2.75 11.9537 2.78292 12.0292 2.84153 12.0849C2.90013 12.1406 2.97962 12.1719 3.0625 12.1719Z" fill="#1B193F"/>
<path d="M3.0625 13.9531H6.8125C6.89538 13.9531 6.97487 13.9218 7.03347 13.8662C7.09208 13.8105 7.125 13.735 7.125 13.6562C7.125 13.5775 7.09208 13.502 7.03347 13.4463C6.97487 13.3907 6.89538 13.3594 6.8125 13.3594H3.0625C2.97962 13.3594 2.90013 13.3907 2.84153 13.4463C2.78292 13.502 2.75 13.5775 2.75 13.6562C2.75 13.735 2.78292 13.8105 2.84153 13.8662C2.90013 13.9218 2.97962 13.9531 3.0625 13.9531Z" fill="#1B193F"/>
<path d="M3.0625 15.1406H6.8125C6.89538 15.1406 6.97487 15.1093 7.03347 15.0537C7.09208 14.998 7.125 14.9225 7.125 14.8438C7.125 14.765 7.09208 14.6895 7.03347 14.6338C6.97487 14.5782 6.89538 14.5469 6.8125 14.5469H3.0625C2.97962 14.5469 2.90013 14.5782 2.84153 14.6338C2.78292 14.6895 2.75 14.765 2.75 14.8438C2.75 14.9225 2.78292 14.998 2.84153 15.0537C2.90013 15.1093 2.97962 15.1406 3.0625 15.1406Z" fill="#1B193F"/>
<path d="M3.0625 16.3281H6.8125C6.89538 16.3281 6.97487 16.2968 7.03347 16.2412C7.09208 16.1855 7.125 16.11 7.125 16.0312C7.125 15.9525 7.09208 15.877 7.03347 15.8213C6.97487 15.7657 6.89538 15.7344 6.8125 15.7344H3.0625C2.97962 15.7344 2.90013 15.7657 2.84153 15.8213C2.78292 15.877 2.75 15.9525 2.75 16.0312C2.75 16.11 2.78292 16.1855 2.84153 16.2412C2.90013 16.2968 2.97962 16.3281 3.0625 16.3281Z" fill="#1B193F"/>
<path d="M14.8812 8.31212C14.6337 8.32633 14.4023 8.43307 14.2374 8.609L13.2718 9.63916L13.1374 9.49962C13.0554 9.4123 12.956 9.34118 12.845 9.29034C12.734 9.23949 12.6135 9.20992 12.4905 9.2033C12.242 9.18994 11.9981 9.2709 11.8124 9.42837C11.6268 9.58585 11.5146 9.80693 11.5005 10.043C11.4865 10.2791 11.5717 10.5108 11.7374 10.6871L12.5687 11.5777C12.6567 11.672 12.7647 11.7475 12.8856 11.7992C13.0065 11.8509 13.1376 11.8776 13.2703 11.8776C13.4029 11.8776 13.534 11.8509 13.6549 11.7992C13.7758 11.7475 13.8839 11.672 13.9718 11.5777L15.6374 9.7965C15.7196 9.70922 15.7829 9.6074 15.8236 9.49687C15.8643 9.38634 15.8817 9.26927 15.8747 9.15235C15.8678 9.03543 15.8366 8.92096 15.783 8.8155C15.7294 8.71004 15.6545 8.61566 15.5624 8.53775C15.4702 8.45926 15.3625 8.39891 15.2456 8.36019C15.1286 8.32146 15.0048 8.30513 14.8812 8.31212ZM15.1718 9.40166L13.5031 11.1829C13.4738 11.214 13.4379 11.2389 13.3978 11.2559C13.3576 11.2729 13.3142 11.2817 13.2703 11.2817C13.2263 11.2817 13.1829 11.2729 13.1428 11.2559C13.1026 11.2389 13.0668 11.214 13.0374 11.1829L12.2031 10.2923C12.1624 10.2495 12.1358 10.1964 12.1263 10.1395C12.1169 10.0826 12.1251 10.0243 12.15 9.97174C12.1748 9.91918 12.2152 9.87462 12.2663 9.84351C12.3173 9.81239 12.3768 9.79606 12.4374 9.7965C12.4816 9.79618 12.5253 9.80475 12.5657 9.82163C12.6061 9.83852 12.6422 9.86334 12.6718 9.89447L13.0374 10.2863C13.0668 10.3174 13.1026 10.3423 13.1428 10.3593C13.1829 10.3764 13.2263 10.3852 13.2703 10.3852C13.3142 10.3852 13.3576 10.3764 13.3978 10.3593C13.4379 10.3423 13.4738 10.3174 13.5031 10.2863L14.7031 9.00681C14.7302 8.9773 14.7632 8.95318 14.8003 8.93586C14.8373 8.91853 14.8775 8.90834 14.9187 8.90587C15.0011 8.90143 15.0819 8.92811 15.1437 8.98009C15.1749 9.00588 15.2004 9.0373 15.2187 9.07252C15.2371 9.10775 15.2478 9.14608 15.2505 9.18529C15.2531 9.22451 15.2475 9.26382 15.234 9.30096C15.2205 9.3381 15.1993 9.37233 15.1718 9.40166Z" fill="#1B193F"/>
</g>
<defs>
<clipPath id="clip0_1755_39106">
<rect width="19" height="19" fill="white"/>
</clipPath>
</defs>
</svg>
