<svg width="19" height="19" viewBox="0 0 19 19" fill="none" xmlns="http://www.w3.org/2000/svg">
<g clip-path="url(#clip0_1755_39118)">
<path d="M18.2986 11.5108L17.6432 11.1324C17.7533 10.5849 17.809 10.0368 17.809 9.5C17.809 8.95543 17.7542 8.40674 17.646 7.866L18.2986 7.4892C18.5007 7.37252 18.6453 7.18408 18.7057 6.95865C18.7661 6.73321 18.7351 6.49774 18.6184 6.29562L16.8336 3.20434C16.7169 3.00222 16.5285 2.85762 16.3031 2.79724C16.0776 2.73686 15.8422 2.76783 15.64 2.88454L14.9869 3.26164C14.1619 2.53581 13.1909 1.97407 12.1573 1.62456V0.873777C12.1573 0.391973 11.7653 0 11.2835 0H7.71405C7.23225 0 6.84028 0.391973 6.84028 0.873777V1.62459C5.81219 1.97269 4.84256 2.53518 4.01448 3.26387L3.35751 2.88454C3.15536 2.76783 2.91988 2.73682 2.69445 2.79724C2.46901 2.85766 2.28061 3.00222 2.1639 3.20434L0.379162 6.29562C0.262447 6.49774 0.231475 6.73321 0.291858 6.95865C0.352242 7.18408 0.496843 7.37252 0.698964 7.4892L1.35433 7.8676C1.24435 8.41503 1.18861 8.9632 1.18861 9.5C1.18861 10.0445 1.24342 10.5932 1.35162 11.134L0.699001 11.5108C0.281745 11.7517 0.138297 12.2871 0.379162 12.7044L2.1639 15.7957C2.4048 16.2129 2.94022 16.3564 3.35751 16.1155L4.01062 15.7384C4.83568 16.4642 5.80662 17.0259 6.84028 17.3755V18.1262C6.84028 18.608 7.23225 19 7.71405 19H11.2835C11.7653 19 12.1573 18.608 12.1573 18.1262V17.3754C13.1854 17.0273 14.1551 16.4648 14.9831 15.7362L15.6401 16.1155C16.0573 16.3564 16.5928 16.2129 16.8337 15.7957L18.6184 12.7044C18.8593 12.2871 18.7158 11.7517 18.2986 11.5108ZM18.1354 12.4255L16.3507 15.5168C16.2635 15.6677 16.0699 15.7196 15.9189 15.6324L15.0864 15.1517C14.9806 15.0906 14.8473 15.1056 14.7576 15.1885C13.9064 15.9758 12.8822 16.5697 11.7959 16.9063C11.6792 16.9425 11.5996 17.0504 11.5996 17.1727V18.1262C11.5996 18.3005 11.4578 18.4423 11.2835 18.4423H7.71405C7.53978 18.4423 7.39801 18.3005 7.39801 18.1262V17.1727C7.39801 17.0505 7.3184 16.9425 7.20169 16.9063C6.10868 16.5677 5.08328 15.9745 4.23624 15.1908C4.1834 15.1419 4.11539 15.1166 4.04679 15.1166C3.99898 15.1166 3.9509 15.1289 3.90744 15.154L3.07865 15.6324C2.92769 15.7195 2.73405 15.6677 2.64693 15.5168L0.862193 12.4255C0.775076 12.2746 0.826982 12.0809 0.977866 11.9938L1.80598 11.5156C1.91173 11.4546 1.96546 11.3319 1.93857 11.2128C1.811 10.6473 1.74634 10.071 1.74634 9.5C1.74634 8.93855 1.81197 8.36283 1.94144 7.78881C1.96828 7.66972 1.91455 7.54698 1.80885 7.48596L0.977866 7.0062C0.904766 6.964 0.852488 6.89585 0.830625 6.81431C0.8088 6.73277 0.819991 6.64758 0.862193 6.57448L2.64693 3.48321C2.68913 3.41011 2.75729 3.35779 2.83886 3.33597C2.92037 3.31411 3.00559 3.32533 3.07869 3.36754L3.91127 3.84823C4.01709 3.90935 4.15035 3.89441 4.24003 3.81145C5.09127 3.0242 6.11538 2.43022 7.20169 2.09368C7.31844 2.0575 7.39804 1.94953 7.39804 1.82731V0.873777C7.39804 0.699505 7.53982 0.55773 7.71409 0.55773H11.2836C11.4578 0.55773 11.5996 0.699505 11.5996 0.873777V1.82731C11.5996 1.94953 11.6792 2.0575 11.7959 2.09368C12.8889 2.43226 13.9143 3.0255 14.7614 3.80922C14.8511 3.89221 14.9844 3.90712 15.0902 3.84603L15.919 3.36754C15.9921 3.32533 16.0773 3.31411 16.1588 3.33597C16.2403 3.35783 16.3085 3.41011 16.3507 3.48321L18.1355 6.57448C18.1777 6.64758 18.1889 6.73277 18.167 6.81431C18.1452 6.89585 18.0929 6.964 18.0198 7.0062L17.1917 7.48433C17.0859 7.54538 17.0322 7.66812 17.0591 7.78721C17.1867 8.3526 17.2513 8.92885 17.2513 9.5C17.2513 10.0614 17.1857 10.6372 17.0562 11.2112C17.0294 11.3302 17.0831 11.4529 17.1888 11.514L18.0198 11.9938C18.1706 12.0809 18.2225 12.2746 18.1354 12.4255Z" fill="#1B193F" stroke="#1B193F" stroke-width="0.1"/>
<path d="M9.50026 3.86719C6.39415 3.86719 3.86719 6.39419 3.86719 9.50026C3.86719 12.6063 6.39415 15.1333 9.50026 15.1333C12.6064 15.1333 15.1333 12.6063 15.1333 9.50026C15.1333 6.39419 12.6064 3.86719 9.50026 3.86719ZM9.50026 14.5756C6.70172 14.5756 4.42492 12.2988 4.42492 9.50026C4.42492 6.70172 6.70172 4.42492 9.50026 4.42492C12.2988 4.42492 14.5756 6.70172 14.5756 9.50026C14.5756 12.2988 12.2988 14.5756 9.50026 14.5756Z" fill="#1B193F" stroke="#1B193F" stroke-width="0.1"/>
</g>
<defs>
<clipPath id="clip0_1755_39118">
<rect width="19" height="19" fill="white"/>
</clipPath>
</defs>
</svg>
