<svg width="14" height="14" viewBox="0 0 14 14" fill="none" xmlns="http://www.w3.org/2000/svg">
<path d="M12.4443 5.30703L7.89427 9.87057C7.8401 9.92474 7.78142 9.96302 7.71823 9.98541C7.65504 10.0082 7.58733 10.0195 7.5151 10.0195C7.44288 10.0195 7.37517 10.0082 7.31198 9.98541C7.24879 9.96302 7.1901 9.92474 7.13594 9.87057L2.5724 5.30703C2.44601 5.18064 2.38281 5.02266 2.38281 4.83307C2.38281 4.64349 2.45052 4.48099 2.58594 4.34557C2.72135 4.21016 2.87934 4.14245 3.0599 4.14245C3.24045 4.14245 3.39844 4.21016 3.53385 4.34557L7.5151 8.32682L11.4964 4.34557C11.6227 4.21918 11.7784 4.15599 11.9633 4.15599C12.1485 4.15599 12.3089 4.2237 12.4443 4.35911C12.5797 4.49453 12.6474 4.65252 12.6474 4.83307C12.6474 5.01363 12.5797 5.17161 12.4443 5.30703Z" fill="#1B193F"/>
</svg>
