<svg width="15" height="13" viewBox="0 0 15 13" fill="none" xmlns="http://www.w3.org/2000/svg">
<path d="M11.3985 5.2875L6.87187 9.85104C6.81798 9.90521 6.7596 9.94349 6.69673 9.96587C6.63386 9.98862 6.5665 10 6.49464 10C6.42279 10 6.35543 9.98862 6.29256 9.96587C6.22969 9.94349 6.17131 9.90521 6.11742 9.85104L1.57728 5.2875C1.45154 5.16111 1.38867 5.00313 1.38867 4.81354C1.38867 4.62396 1.45603 4.46146 1.59075 4.32604C1.72548 4.19063 1.88265 4.12292 2.06228 4.12292C2.24191 4.12292 2.39909 4.19063 2.53381 4.32604L6.49464 8.30729L10.4555 4.32604C10.5812 4.19965 10.7361 4.13646 10.92 4.13646C11.1043 4.13646 11.2638 4.20417 11.3985 4.33958C11.5333 4.475 11.6006 4.63299 11.6006 4.81354C11.6006 4.9941 11.5333 5.15208 11.3985 5.2875Z" fill="#1B193F"/>
</svg>
