<svg width="23" height="23" viewBox="0 0 23 23" fill="none" xmlns="http://www.w3.org/2000/svg">
<path d="M1.61719 11.3125C1.61719 16.8355 6.09419 21.3125 11.6172 21.3125C17.1402 21.3125 21.6172 16.8355 21.6172 11.3125C21.6172 5.7895 17.1402 1.3125 11.6172 1.3125C6.09419 1.3125 1.61719 5.7895 1.61719 11.3125Z" stroke="#1B193F" stroke-width="1.5" stroke-linecap="round" stroke-linejoin="round"/>
<path d="M12.62 1.36328C12.62 1.36328 15.62 5.31328 15.62 11.3133C15.62 17.3133 12.62 21.2633 12.62 21.2633M10.62 21.2633C10.62 21.2633 7.62 17.3133 7.62 11.3133C7.62 5.31328 10.62 1.36328 10.62 1.36328M2.25 14.8133H20.99M2.25 7.81328H20.99" stroke="#1B193F" stroke-width="1.5" stroke-linecap="round" stroke-linejoin="round"/>
</svg>
