<svg width="20" height="20" viewBox="0 0 20 20" fill="none" xmlns="http://www.w3.org/2000/svg">
<path d="M13.4232 11.6679H12.8048L12.5856 11.4429C13.0748 10.8378 13.4324 10.1252 13.6326 9.35588C13.8329 8.58658 13.871 7.77966 13.7442 6.99287C13.3762 4.6762 11.5601 2.8262 9.36815 2.54287C8.59754 2.43909 7.81485 2.52434 7.07996 2.79211C6.34507 3.05987 5.67746 3.50305 5.12822 4.08773C4.57898 4.6724 4.16266 5.38308 3.91112 6.16539C3.65959 6.94769 3.5795 7.78088 3.67699 8.6012C3.94315 10.9345 5.68103 12.8679 7.85729 13.2595C8.5964 13.3946 9.35441 13.354 10.0771 13.1408C10.7998 12.9276 11.4692 12.547 12.0376 12.0262L12.249 12.2595V12.9179L15.576 16.4595C15.8969 16.8012 16.4214 16.8012 16.7424 16.4595C17.0633 16.1179 17.0633 15.5595 16.7424 15.2179L13.4232 11.6679ZM8.72623 11.6679C6.77699 11.6679 5.2035 9.99287 5.2035 7.91787C5.2035 5.84287 6.77699 4.16787 8.72623 4.16787C10.6755 4.16787 12.249 5.84287 12.249 7.91787C12.249 9.99287 10.6755 11.6679 8.72623 11.6679Z" fill="black"/>
</svg>
