<svg width="27" height="22" viewBox="0 0 27 22" fill="none" xmlns="http://www.w3.org/2000/svg">
<path d="M7.21875 12.8971L10.0084 20.3473L22.4002 3.41406L7.21875 12.8971Z" fill="#C2DAEC"/>
<path d="M10.3159 14.5508L10.0469 20.419L16.5871 14.9636L10.3159 14.5508Z" fill="#9FCDE2"/>
<path d="M25.4273 0.552415L1.00893 9.69191C0.857153 9.74845 0.726826 9.84973 0.635755 9.9819C0.544684 10.1141 0.497314 10.2707 0.500118 10.4304C0.502921 10.59 0.555761 10.7449 0.651418 10.8739C0.747076 11.0029 0.880882 11.0997 1.03455 11.1511L7.33452 13.2374L21.6736 4.13258L10.3164 14.5548L19.1562 21.173C19.3677 21.3332 19.6166 21.4388 19.8802 21.4803C20.1438 21.5217 20.4138 21.4976 20.6655 21.4103C20.9173 21.3229 21.1428 21.175 21.3217 20.98C21.5005 20.785 21.627 20.5491 21.6896 20.2937L26.4714 1.48212C26.5104 1.34359 26.5095 1.19713 26.4687 1.05909C26.428 0.921047 26.3491 0.796869 26.2408 0.700423C26.1324 0.603977 25.999 0.539061 25.8554 0.512925C25.7117 0.486788 25.5635 0.50046 25.4273 0.552415Z" fill="#ECF8FD"/>
</svg>
