<svg width="21" height="21" viewBox="0 0 21 21" fill="none" xmlns="http://www.w3.org/2000/svg">
<path fill-rule="evenodd" clip-rule="evenodd" d="M6.29844 1.39844C6.48409 1.39844 6.66214 1.47219 6.79341 1.60346C6.92469 1.73474 6.99844 1.91279 6.99844 2.09844V2.79844H13.9984V2.09844C13.9984 1.91279 14.0722 1.73474 14.2035 1.60346C14.3347 1.47219 14.5128 1.39844 14.6984 1.39844C14.8841 1.39844 15.0621 1.47219 15.1934 1.60346C15.3247 1.73474 15.3984 1.91279 15.3984 2.09844V2.79844H17.4984C18.0554 2.79844 18.5895 3.01969 18.9834 3.41351C19.3772 3.80734 19.5984 4.34148 19.5984 4.89844V17.4984C19.5984 18.0554 19.3772 18.5895 18.9834 18.9834C18.5895 19.3772 18.0554 19.5984 17.4984 19.5984H3.49844C2.94148 19.5984 2.40734 19.3772 2.01351 18.9834C1.61969 18.5895 1.39844 18.0554 1.39844 17.4984V4.89844C1.39844 4.34148 1.61969 3.80734 2.01351 3.41351C2.40734 3.01969 2.94148 2.79844 3.49844 2.79844H5.59844V2.09844C5.59844 1.91279 5.67219 1.73474 5.80346 1.60346C5.93474 1.47219 6.11279 1.39844 6.29844 1.39844ZM13.9984 4.19844V4.89844C13.9984 5.08409 14.0722 5.26214 14.2035 5.39341C14.3347 5.52469 14.5128 5.59844 14.6984 5.59844C14.8841 5.59844 15.0621 5.52469 15.1934 5.39341C15.3247 5.26214 15.3984 5.08409 15.3984 4.89844V4.19844H17.4984C17.6841 4.19844 17.8621 4.27219 17.9934 4.40346C18.1247 4.53474 18.1984 4.71279 18.1984 4.89844V6.99844H2.79844V4.89844C2.79844 4.71279 2.87219 4.53474 3.00346 4.40346C3.13474 4.27219 3.31279 4.19844 3.49844 4.19844H5.59844V4.89844C5.59844 5.08409 5.67219 5.26214 5.80346 5.39341C5.93474 5.52469 6.11279 5.59844 6.29844 5.59844C6.48409 5.59844 6.66214 5.52469 6.79341 5.39341C6.92469 5.26214 6.99844 5.08409 6.99844 4.89844V4.19844H13.9984ZM2.79844 8.39844V17.4984C2.79844 17.6841 2.87219 17.8621 3.00346 17.9934C3.13474 18.1247 3.31279 18.1984 3.49844 18.1984H17.4984C17.6841 18.1984 17.8621 18.1247 17.9934 17.9934C18.1247 17.8621 18.1984 17.6841 18.1984 17.4984V8.39844H2.79844ZM9.79844 10.4984C9.79844 10.3128 9.87219 10.1347 10.0035 10.0035C10.1347 9.87219 10.3128 9.79844 10.4984 9.79844C10.6841 9.79844 10.8621 9.87219 10.9934 10.0035C11.1247 10.1347 11.1984 10.3128 11.1984 10.4984C11.1984 10.6841 11.1247 10.8621 10.9934 10.9934C10.8621 11.1247 10.6841 11.1984 10.4984 11.1984C10.3128 11.1984 10.1347 11.1247 10.0035 10.9934C9.87219 10.8621 9.79844 10.6841 9.79844 10.4984ZM13.2984 9.79844C13.1128 9.79844 12.9347 9.87219 12.8035 10.0035C12.6722 10.1347 12.5984 10.3128 12.5984 10.4984C12.5984 10.6841 12.6722 10.8621 12.8035 10.9934C12.9347 11.1247 13.1128 11.1984 13.2984 11.1984C13.4841 11.1984 13.6621 11.1247 13.7934 10.9934C13.9247 10.8621 13.9984 10.6841 13.9984 10.4984C13.9984 10.3128 13.9247 10.1347 13.7934 10.0035C13.6621 9.87219 13.4841 9.79844 13.2984 9.79844ZM15.3984 10.4984C15.3984 10.3128 15.4722 10.1347 15.6035 10.0035C15.7347 9.87219 15.9128 9.79844 16.0984 9.79844C16.2841 9.79844 16.4621 9.87219 16.5934 10.0035C16.7247 10.1347 16.7984 10.3128 16.7984 10.4984C16.7984 10.6841 16.7247 10.8621 16.5934 10.9934C16.4621 11.1247 16.2841 11.1984 16.0984 11.1984C15.9128 11.1984 15.7347 11.1247 15.6035 10.9934C15.4722 10.8621 15.3984 10.6841 15.3984 10.4984ZM16.0984 12.5984C15.9128 12.5984 15.7347 12.6722 15.6035 12.8035C15.4722 12.9347 15.3984 13.1128 15.3984 13.2984C15.3984 13.4841 15.4722 13.6621 15.6035 13.7934C15.7347 13.9247 15.9128 13.9984 16.0984 13.9984C16.2841 13.9984 16.4621 13.9247 16.5934 13.7934C16.7247 13.6621 16.7984 13.4841 16.7984 13.2984C16.7984 13.1128 16.7247 12.9347 16.5934 12.8035C16.4621 12.6722 16.2841 12.5984 16.0984 12.5984ZM12.5984 13.2984C12.5984 13.1128 12.6722 12.9347 12.8035 12.8035C12.9347 12.6722 13.1128 12.5984 13.2984 12.5984C13.4841 12.5984 13.6621 12.6722 13.7934 12.8035C13.9247 12.9347 13.9984 13.1128 13.9984 13.2984C13.9984 13.4841 13.9247 13.6621 13.7934 13.7934C13.6621 13.9247 13.4841 13.9984 13.2984 13.9984C13.1128 13.9984 12.9347 13.9247 12.8035 13.7934C12.6722 13.6621 12.5984 13.4841 12.5984 13.2984ZM10.4984 12.5984C10.3128 12.5984 10.1347 12.6722 10.0035 12.8035C9.87219 12.9347 9.79844 13.1128 9.79844 13.2984C9.79844 13.4841 9.87219 13.6621 10.0035 13.7934C10.1347 13.9247 10.3128 13.9984 10.4984 13.9984C10.6841 13.9984 10.8621 13.9247 10.9934 13.7934C11.1247 13.6621 11.1984 13.4841 11.1984 13.2984C11.1984 13.1128 11.1247 12.9347 10.9934 12.8035C10.8621 12.6722 10.6841 12.5984 10.4984 12.5984ZM6.99844 13.2984C6.99844 13.1128 7.07219 12.9347 7.20346 12.8035C7.33474 12.6722 7.51279 12.5984 7.69844 12.5984C7.88409 12.5984 8.06214 12.6722 8.19341 12.8035C8.32469 12.9347 8.39844 13.1128 8.39844 13.2984C8.39844 13.4841 8.32469 13.6621 8.19341 13.7934C8.06214 13.9247 7.88409 13.9984 7.69844 13.9984C7.51279 13.9984 7.33474 13.9247 7.20346 13.7934C7.07219 13.6621 6.99844 13.4841 6.99844 13.2984ZM4.89844 12.5984C4.71279 12.5984 4.53474 12.6722 4.40346 12.8035C4.27219 12.9347 4.19844 13.1128 4.19844 13.2984C4.19844 13.4841 4.27219 13.6621 4.40346 13.7934C4.53474 13.9247 4.71279 13.9984 4.89844 13.9984C5.08409 13.9984 5.26214 13.9247 5.39341 13.7934C5.52469 13.6621 5.59844 13.4841 5.59844 13.2984C5.59844 13.1128 5.52469 12.9347 5.39341 12.8035C5.26214 12.6722 5.08409 12.5984 4.89844 12.5984ZM4.19844 16.0984C4.19844 15.9128 4.27219 15.7347 4.40346 15.6035C4.53474 15.4722 4.71279 15.3984 4.89844 15.3984C5.08409 15.3984 5.26214 15.4722 5.39341 15.6035C5.52469 15.7347 5.59844 15.9128 5.59844 16.0984C5.59844 16.2841 5.52469 16.4621 5.39341 16.5934C5.26214 16.7247 5.08409 16.7984 4.89844 16.7984C4.71279 16.7984 4.53474 16.7247 4.40346 16.5934C4.27219 16.4621 4.19844 16.2841 4.19844 16.0984ZM7.69844 15.3984C7.51279 15.3984 7.33474 15.4722 7.20346 15.6035C7.07219 15.7347 6.99844 15.9128 6.99844 16.0984C6.99844 16.2841 7.07219 16.4621 7.20346 16.5934C7.33474 16.7247 7.51279 16.7984 7.69844 16.7984C7.88409 16.7984 8.06214 16.7247 8.19341 16.5934C8.32469 16.4621 8.39844 16.2841 8.39844 16.0984C8.39844 15.9128 8.32469 15.7347 8.19341 15.6035C8.06214 15.4722 7.88409 15.3984 7.69844 15.3984ZM9.79844 16.0984C9.79844 15.9128 9.87219 15.7347 10.0035 15.6035C10.1347 15.4722 10.3128 15.3984 10.4984 15.3984C10.6841 15.3984 10.8621 15.4722 10.9934 15.6035C11.1247 15.7347 11.1984 15.9128 11.1984 16.0984C11.1984 16.2841 11.1247 16.4621 10.9934 16.5934C10.8621 16.7247 10.6841 16.7984 10.4984 16.7984C10.3128 16.7984 10.1347 16.7247 10.0035 16.5934C9.87219 16.4621 9.79844 16.2841 9.79844 16.0984ZM13.2984 15.3984C13.1128 15.3984 12.9347 15.4722 12.8035 15.6035C12.6722 15.7347 12.5984 15.9128 12.5984 16.0984C12.5984 16.2841 12.6722 16.4621 12.8035 16.5934C12.9347 16.7247 13.1128 16.7984 13.2984 16.7984C13.4841 16.7984 13.6621 16.7247 13.7934 16.5934C13.9247 16.4621 13.9984 16.2841 13.9984 16.0984C13.9984 15.9128 13.9247 15.7347 13.7934 15.6035C13.6621 15.4722 13.4841 15.3984 13.2984 15.3984Z" fill="black"/>
</svg>
