<svg width="25" height="25" viewBox="0 0 25 25" fill="none" xmlns="http://www.w3.org/2000/svg">
<path d="M21.875 5H3.125C2.7106 5 2.31317 5.16462 2.02015 5.45765C1.72712 5.75067 1.5625 6.1481 1.5625 6.5625V19.0625C1.5625 19.4769 1.72712 19.8743 2.02015 20.1674C2.31317 20.4604 2.7106 20.625 3.125 20.625H21.875C22.2894 20.625 22.6868 20.4604 22.9799 20.1674C23.2729 19.8743 23.4375 19.4769 23.4375 19.0625V6.5625C23.4375 6.1481 23.2729 5.75067 22.9799 5.45765C22.6868 5.16462 22.2894 5 21.875 5ZM20.1562 6.5625L12.5 11.8594L4.84375 6.5625H20.1562ZM3.125 19.0625V7.27344L12.0547 13.4531C12.1855 13.5438 12.3408 13.5925 12.5 13.5925C12.6592 13.5925 12.8145 13.5438 12.9453 13.4531L21.875 7.27344V19.0625H3.125Z" fill="#1B193F"/>
</svg>
