<svg width="25" height="25" viewBox="0 0 25 25" fill="none" xmlns="http://www.w3.org/2000/svg">
<path d="M12.5026 9.3737C11.6738 9.3737 10.8789 9.70294 10.2929 10.289C9.70684 10.875 9.3776 11.6699 9.3776 12.4987C9.3776 13.3275 9.70684 14.1224 10.2929 14.7084C10.8789 15.2945 11.6738 15.6237 12.5026 15.6237C13.3314 15.6237 14.1263 15.2945 14.7123 14.7084C15.2984 14.1224 15.6276 13.3275 15.6276 12.4987C15.6276 11.6699 15.2984 10.875 14.7123 10.289C14.1263 9.70294 13.3314 9.3737 12.5026 9.3737ZM12.5026 7.29036C13.8839 7.29036 15.2087 7.8391 16.1855 8.81585C17.1622 9.7926 17.7109 11.1174 17.7109 12.4987C17.7109 13.88 17.1622 15.2048 16.1855 16.1815C15.2087 17.1583 13.8839 17.707 12.5026 17.707C11.1213 17.707 9.79651 17.1583 8.81976 16.1815C7.843 15.2048 7.29427 13.88 7.29427 12.4987C7.29427 11.1174 7.843 9.7926 8.81976 8.81585C9.79651 7.8391 11.1213 7.29036 12.5026 7.29036ZM19.2734 7.02995C19.2734 7.37528 19.1363 7.70647 18.8921 7.95066C18.6479 8.19485 18.3167 8.33203 17.9714 8.33203C17.626 8.33203 17.2948 8.19485 17.0506 7.95066C16.8065 7.70647 16.6693 7.37528 16.6693 7.02995C16.6693 6.68461 16.8065 6.35342 17.0506 6.10924C17.2948 5.86505 17.626 5.72786 17.9714 5.72786C18.3167 5.72786 18.6479 5.86505 18.8921 6.10924C19.1363 6.35342 19.2734 6.68461 19.2734 7.02995ZM12.5026 4.16536C9.92552 4.16536 9.50469 4.17266 8.30573 4.22578C7.48906 4.26432 6.94115 4.3737 6.43281 4.57161C6.00741 4.7278 5.62283 4.97814 5.30781 5.30391C4.98178 5.61891 4.7311 6.00347 4.57448 6.42891C4.37656 6.93932 4.26719 7.4862 4.22969 8.30182C4.17552 9.45182 4.16823 9.85391 4.16823 12.4987C4.16823 15.0768 4.17552 15.4966 4.22865 16.6956C4.26719 17.5112 4.37656 18.0602 4.57344 18.5674C4.75052 19.0206 4.95885 19.3466 5.30469 19.6924C5.65573 20.0424 5.98177 20.2518 6.42969 20.4247C6.94427 20.6237 7.49219 20.7341 8.30469 20.7716C9.45469 20.8258 9.85677 20.832 12.5016 20.832C15.0797 20.832 15.4995 20.8247 16.6984 20.7716C17.513 20.7331 18.0609 20.6237 18.5703 20.4268C18.9953 20.2699 19.3798 20.0196 19.6953 19.6945C20.0464 19.3445 20.2557 19.0185 20.4286 18.5695C20.6266 18.057 20.737 17.5091 20.7745 16.6945C20.8286 15.5456 20.8349 15.1424 20.8349 12.4987C20.8349 9.92161 20.8276 9.50078 20.7745 8.30182C20.7359 7.48724 20.6255 6.93724 20.4286 6.42891C20.2716 6.00392 20.0214 5.61951 19.6964 5.30391C19.3815 4.9777 18.9969 4.727 18.5714 4.57057C18.0609 4.37266 17.513 4.26328 16.6984 4.22578C15.5495 4.17161 15.1484 4.16536 12.5026 4.16536ZM12.5026 2.08203C15.3328 2.08203 15.6859 2.09245 16.7974 2.14453C17.9057 2.19661 18.662 2.37057 19.3255 2.62891C20.013 2.89349 20.5922 3.25182 21.1714 3.82995C21.701 4.35067 22.1109 4.98056 22.3724 5.67578C22.6297 6.33932 22.8047 7.09557 22.8568 8.20495C22.9057 9.31536 22.9193 9.66849 22.9193 12.4987C22.9193 15.3289 22.9089 15.682 22.8568 16.7924C22.8047 17.9018 22.6297 18.657 22.3724 19.3216C22.1116 20.0172 21.7017 20.6472 21.1714 21.1674C20.6505 21.6969 20.0206 22.1068 19.3255 22.3685C18.662 22.6258 17.9057 22.8008 16.7974 22.8529C15.6859 22.9018 15.3328 22.9154 12.5026 22.9154C9.6724 22.9154 9.31927 22.9049 8.20781 22.8529C7.09948 22.8008 6.34427 22.6258 5.67969 22.3685C4.98419 22.1075 4.35419 21.6976 3.83385 21.1674C3.3041 20.6468 2.89423 20.0169 2.63281 19.3216C2.37448 18.6581 2.20052 17.9018 2.14844 16.7924C2.09844 15.682 2.08594 15.3289 2.08594 12.4987C2.08594 9.66849 2.09635 9.31536 2.14844 8.20495C2.20052 7.09453 2.37448 6.34036 2.63281 5.67578C2.89348 4.98013 3.30344 4.35007 3.83385 3.82995C4.35434 3.29998 4.9843 2.89008 5.67969 2.62891C6.34323 2.37057 7.09844 2.19661 8.20781 2.14453C9.31927 2.09557 9.6724 2.08203 12.5026 2.08203Z" fill="#1B193F"/>
</svg>
