<svg width="25" height="25" viewBox="0 0 25 25" fill="none" xmlns="http://www.w3.org/2000/svg">
<path fill-rule="evenodd" clip-rule="evenodd" d="M5.20833 1.30078C4.4486 1.30078 3.71998 1.60258 3.18277 2.1398C2.64555 2.67701 2.34375 3.40563 2.34375 4.16536C2.34375 4.9251 2.64555 5.65372 3.18277 6.19093C3.71998 6.72814 4.4486 7.02995 5.20833 7.02995C5.96807 7.02995 6.69669 6.72814 7.2339 6.19093C7.77111 5.65372 8.07292 4.9251 8.07292 4.16536C8.07292 3.40563 7.77111 2.67701 7.2339 2.1398C6.69669 1.60258 5.96807 1.30078 5.20833 1.30078ZM3.90625 4.16536C3.90625 3.82003 4.04343 3.48884 4.28762 3.24465C4.53181 3.00046 4.863 2.86328 5.20833 2.86328C5.55367 2.86328 5.88486 3.00046 6.12905 3.24465C6.37323 3.48884 6.51042 3.82003 6.51042 4.16536C6.51042 4.5107 6.37323 4.84189 6.12905 5.08608C5.88486 5.33026 5.55367 5.46745 5.20833 5.46745C4.863 5.46745 4.53181 5.33026 4.28762 5.08608C4.04343 4.84189 3.90625 4.5107 3.90625 4.16536ZM2.34375 8.33203C2.34375 8.12483 2.42606 7.92612 2.57257 7.7796C2.71909 7.63309 2.9178 7.55078 3.125 7.55078H7.29167C7.49887 7.55078 7.69758 7.63309 7.84409 7.7796C7.99061 7.92612 8.07292 8.12483 8.07292 8.33203V21.8737C8.07292 22.0809 7.99061 22.2796 7.84409 22.4261C7.69758 22.5726 7.49887 22.6549 7.29167 22.6549H3.125C2.9178 22.6549 2.71909 22.5726 2.57257 22.4261C2.42606 22.2796 2.34375 22.0809 2.34375 21.8737V8.33203ZM3.90625 9.11328V21.0924H6.51042V9.11328H3.90625ZM9.63542 8.33203C9.63542 8.12483 9.71773 7.92612 9.86424 7.7796C10.0108 7.63309 10.2095 7.55078 10.4167 7.55078H14.5833C14.7905 7.55078 14.9892 7.63309 15.1358 7.7796C15.2823 7.92612 15.3646 8.12483 15.3646 8.33203V8.78411L15.8177 8.58932C16.599 8.25544 17.4278 8.0463 18.274 7.96953C21.1646 7.70703 23.6979 9.97786 23.6979 12.8945V21.8737C23.6979 22.0809 23.6156 22.2796 23.4691 22.4261C23.3226 22.5726 23.1239 22.6549 22.9167 22.6549H18.75C18.5428 22.6549 18.3441 22.5726 18.1976 22.4261C18.0511 22.2796 17.9687 22.0809 17.9687 21.8737V14.582C17.9687 14.2367 17.8316 13.9055 17.5874 13.6613C17.3432 13.4171 17.012 13.2799 16.6667 13.2799C16.3213 13.2799 15.9901 13.4171 15.746 13.6613C15.5018 13.9055 15.3646 14.2367 15.3646 14.582V21.8737C15.3646 22.0809 15.2823 22.2796 15.1358 22.4261C14.9892 22.5726 14.7905 22.6549 14.5833 22.6549H10.4167C10.2095 22.6549 10.0108 22.5726 9.86424 22.4261C9.71773 22.2796 9.63542 22.0809 9.63542 21.8737V8.33203ZM11.1979 9.11328V21.0924H13.8021V14.582C13.8021 13.8223 14.1039 13.0937 14.6411 12.5565C15.1783 12.0193 15.9069 11.7174 16.6667 11.7174C17.4264 11.7174 18.155 12.0193 18.6922 12.5565C19.2294 13.0937 19.5312 13.8223 19.5312 14.582V21.0924H22.1354V12.8945C22.1354 10.9112 20.4052 9.34453 18.4167 9.52578C17.7335 9.58793 17.0643 9.75664 16.4333 10.0258L14.8917 10.6872C14.7728 10.7383 14.643 10.7591 14.5141 10.7476C14.3852 10.7361 14.2612 10.6928 14.1531 10.6215C14.0451 10.5503 13.9565 10.4533 13.8952 10.3393C13.8339 10.2253 13.8019 10.0979 13.8021 9.96849V9.11328H11.1979Z" fill="#1B193F"/>
</svg>
