<svg width="25" height="25" viewBox="0 0 25 25" fill="none" xmlns="http://www.w3.org/2000/svg">
<path d="M21.6397 15.6536L17.0264 13.5862C16.8174 13.4966 16.5893 13.4606 16.3628 13.4814C16.1364 13.5022 15.9187 13.5792 15.7295 13.7053C15.7103 13.7177 15.692 13.7314 15.6748 13.7464L13.2637 15.7971C13.2387 15.8108 13.2108 15.8184 13.1823 15.8194C13.1539 15.8204 13.1255 15.8148 13.0996 15.803C11.5498 15.055 9.94435 13.4593 9.19337 11.9309C9.18086 11.9054 9.17436 11.8773 9.17436 11.8489C9.17436 11.8205 9.18086 11.7924 9.19337 11.7669L11.251 9.32547C11.2658 9.3074 11.2794 9.28849 11.292 9.26882C11.4164 9.07889 11.4915 8.86096 11.5106 8.63471C11.5297 8.40847 11.4922 8.18103 11.4014 7.97293L9.34864 3.36746C9.23207 3.09559 9.03047 2.86887 8.77409 2.72131C8.51772 2.57375 8.2204 2.51333 7.92677 2.5491C6.65062 2.71687 5.47922 3.34357 4.63148 4.31209C3.78373 5.2806 3.31765 6.52467 3.32032 7.81179C3.32032 15.4583 9.54103 21.679 17.1875 21.679C18.4746 21.6814 19.7185 21.2153 20.687 20.3676C21.6555 19.5199 22.2822 18.3486 22.4502 17.0725C22.4859 16.7803 22.4263 16.4843 22.2803 16.2286C22.1342 15.973 21.9095 15.7713 21.6397 15.6536ZM17.1875 20.5071C10.1875 20.5071 4.4922 14.8118 4.4922 7.81179C4.48893 6.80977 4.8506 5.84084 5.50963 5.08602C6.16865 4.33121 7.07995 3.84215 8.07325 3.71023H8.09571C8.13507 3.71097 8.17328 3.72357 8.20535 3.7464C8.23741 3.76923 8.26183 3.80121 8.2754 3.83816L10.3359 8.43875C10.3477 8.46432 10.3538 8.49214 10.3538 8.52029C10.3538 8.54844 10.3477 8.57625 10.3359 8.60183L8.27443 11.0491C8.25905 11.0666 8.24501 11.0852 8.23243 11.1048C8.10343 11.3017 8.02747 11.5286 8.0119 11.7635C7.99633 11.9984 8.04169 12.2333 8.14357 12.4456C9.00978 14.219 10.7969 15.9925 12.5899 16.8587C12.8033 16.96 13.0394 17.0042 13.2751 16.9871C13.5108 16.97 13.738 16.8921 13.9346 16.761C13.9531 16.7483 13.9717 16.7346 13.9893 16.72L16.3994 14.6692C16.4232 14.6564 16.4495 14.6489 16.4765 14.6472C16.5035 14.6456 16.5305 14.6497 16.5557 14.6594L21.1699 16.7268C21.2076 16.7429 21.2393 16.7704 21.2605 16.8054C21.2817 16.8405 21.2914 16.8813 21.2881 16.9221C21.1569 17.9159 20.6683 18.8279 19.9136 19.4876C19.159 20.1474 18.1899 20.5098 17.1875 20.5071Z" fill="#1B193F" stroke="#1B193F" stroke-width="0.5"/>
</svg>
