<svg width="26" height="26" viewBox="0 0 26 26" fill="none" xmlns="http://www.w3.org/2000/svg">
<path d="M24.0588 2.65974C23.9329 2.55103 23.7797 2.47874 23.6158 2.45064C23.4519 2.42254 23.2834 2.4397 23.1285 2.50028L2.54581 10.5552C2.25411 10.6686 2.00715 10.8738 1.84211 11.1397C1.67707 11.4056 1.60289 11.718 1.63073 12.0297C1.65857 12.3414 1.78692 12.6357 1.99647 12.8682C2.20602 13.1007 2.48542 13.2588 2.79261 13.3187L8.12565 14.3658V20.3123C8.1246 20.6362 8.22086 20.953 8.40194 21.2215C8.58303 21.4901 8.8406 21.698 9.14128 21.8185C9.44149 21.9411 9.77164 21.9705 10.0888 21.9029C10.406 21.8354 10.6955 21.674 10.9196 21.4397L13.4912 18.7726L17.571 22.3436C17.8653 22.6046 18.2449 22.7491 18.6384 22.7498C18.8108 22.7497 18.9821 22.7226 19.1462 22.6696C19.4143 22.5845 19.6554 22.4307 19.8455 22.2235C20.0356 22.0162 20.1682 21.7628 20.2299 21.4884L24.3523 3.5545C24.3892 3.39276 24.3813 3.22404 24.3296 3.06641C24.2779 2.90879 24.1843 2.76821 24.0588 2.65974ZM17.8492 6.31599L8.75026 12.8322L3.71276 11.844L17.8492 6.31599ZM9.75065 20.3123V15.4901L12.2684 17.6981L9.75065 20.3123ZM18.6404 21.1248L10.2432 13.7615L22.3292 5.09927L18.6404 21.1248Z" fill="#1B193F"/>
</svg>
