<svg width="16" height="17" viewBox="0 0 16 17" fill="none" xmlns="http://www.w3.org/2000/svg">
<path d="M14.9176 4.50283L13.0624 3.43168L11.9915 1.57676H9.84953L7.99433 0.505615L6.13913 1.57676H3.99716L2.92602 3.43196L1.07115 4.50283V6.64479L0 8.49999L1.07115 10.3552V12.4972L2.92634 13.5683L3.99749 15.4235H6.13946L7.99438 16.4944L9.84958 15.4232H11.9915L13.0627 13.568L14.9179 12.4969V10.3549L15.989 8.49972L14.9179 6.64452V4.50283H14.9176ZM7.2728 11.772C7.12374 11.9211 6.92736 11.9935 6.73185 11.9908C6.5363 11.9936 6.33996 11.9211 6.1909 11.772L3.85283 9.43394C3.55995 9.14106 3.55995 8.66593 3.85283 8.37304L4.47179 7.75408C4.76467 7.4612 5.2398 7.4612 5.53269 7.75408L6.73185 8.95325L10.4558 5.22904C10.7487 4.93615 11.2238 4.93615 11.5167 5.22904L12.1356 5.84799C12.4285 6.14088 12.4285 6.61601 12.1356 6.9089L7.2728 11.772Z" fill="url(#paint0_linear_4208_7121)"/>
<defs>
<linearGradient id="paint0_linear_4208_7121" x1="15.8445" y1="15.4349" x2="-2.54279" y2="15.2064" gradientUnits="userSpaceOnUse">
<stop offset="0.116616" stop-color="#1D4ED8"/>
<stop offset="0.931232" stop-color="#5AD7FE"/>
</linearGradient>
</defs>
</svg>
