<svg width="35" height="34" viewBox="0 0 35 34" fill="none" xmlns="http://www.w3.org/2000/svg">
<g filter="url(#filter0_i_4694_9849)">
<path d="M8.42032 0.00390625H26.7069C30.881 0.00390625 34.26 3.38295 34.26 7.55704V25.8436C34.26 30.0177 30.881 33.3968 26.7069 33.3968H8.42032C4.24623 33.3968 0.867188 30.0177 0.867188 25.8436V7.55704C0.867188 3.38295 4.24623 0.00390625 8.42032 0.00390625Z" fill="url(#paint0_radial_4694_9849)"/>
<path d="M8.42032 0.00390625H26.7069C30.881 0.00390625 34.26 3.38295 34.26 7.55704V25.8436C34.26 30.0177 30.881 33.3968 26.7069 33.3968H8.42032C4.24623 33.3968 0.867188 30.0177 0.867188 25.8436V7.55704C0.867188 3.38295 4.24623 0.00390625 8.42032 0.00390625Z" fill="url(#paint1_radial_4694_9849)"/>
<path d="M17.0482 4.37891C18.6383 4.37891 20.2285 4.37891 21.8186 4.37891C22.8124 4.37891 23.846 4.45842 24.8399 4.73667C26.589 5.21373 27.9406 6.20758 28.855 7.75793C29.4115 8.71205 29.65 9.7456 29.7693 10.819C29.8488 11.773 29.8885 12.7271 29.8885 13.6812C29.8885 16.0267 29.8885 18.4118 29.8885 20.7573C29.8885 21.8306 29.809 22.904 29.5308 23.9773C28.9345 26.124 27.6226 27.6347 25.5554 28.4297C24.5616 28.8272 23.4883 28.9465 22.4149 28.9863C19.7912 29.026 17.1675 29.0658 14.5437 29.0658C13.4306 29.0658 12.2778 29.026 11.2044 28.867C9.65406 28.6682 8.30244 28.0719 7.18938 26.9191C6.15578 25.8458 5.59921 24.5339 5.40044 23.063C5.16193 21.0753 5.20171 19.0877 5.20171 17.0603C5.20171 15.3906 5.24145 13.7607 5.24145 12.0911C5.28118 10.9382 5.3607 9.78538 5.79798 8.67227C6.59306 6.60508 8.06393 5.33298 10.2106 4.73667C11.2044 4.45842 12.238 4.41864 13.2716 4.37891C14.4642 4.37891 15.7761 4.37891 17.0482 4.37891ZM27.7021 16.7422C27.7021 15.7881 27.7419 14.8738 27.7021 13.9197C27.6624 12.7669 27.6226 11.5743 27.5033 10.4214C27.4238 9.62634 27.1058 8.87104 26.5493 8.23499C25.6349 7.16166 24.4423 6.6846 23.0907 6.60508C21.7788 6.52561 20.4272 6.48583 19.1154 6.48583C16.7302 6.48583 14.345 6.52561 11.9598 6.60508C11.0852 6.64486 10.2504 6.84363 9.49507 7.32065C8.26271 8.07595 7.62666 9.22884 7.5074 10.6202C7.38811 11.8128 7.34837 13.0054 7.30863 14.198C7.30863 16.5037 7.30863 18.7696 7.34837 21.0753C7.34837 21.8704 7.46762 22.7052 7.62666 23.4605C7.86516 24.4941 8.46148 25.329 9.33604 25.9252C10.2106 26.5215 11.2442 26.7203 12.2778 26.7601C13.5101 26.7998 14.7028 26.8396 15.9351 26.8396C18.2806 26.8396 20.626 26.7998 22.9715 26.7601C23.9653 26.7203 24.9194 26.4818 25.7144 25.8855C26.7083 25.1699 27.3046 24.1761 27.4636 22.9835C27.5829 22.1089 27.6226 21.2344 27.6624 20.3598C27.7021 19.1672 27.7021 17.9746 27.7021 16.7422Z" fill="white"/>
<path d="M23.8056 16.7004C23.8056 20.2384 20.9831 23.0212 17.4451 23.0212C13.9866 23.0212 11.1641 20.159 11.1641 16.6607C11.1641 13.2021 14.0263 10.3398 17.5246 10.3398C20.9831 10.3796 23.8056 13.2021 23.8056 16.7004ZM13.3505 16.7004C13.3505 19.0061 15.2189 20.8745 17.5246 20.8745C19.8303 20.8745 21.6987 19.0061 21.6987 16.7004C21.6987 14.4345 19.8303 12.5661 17.5246 12.5661C15.1791 12.5661 13.3505 14.3947 13.3505 16.7004Z" fill="white"/>
<path d="M24.0834 8.67188C24.9183 8.67188 25.5543 9.30793 25.5543 10.103C25.5543 10.8981 24.9183 11.5738 24.1232 11.5738C23.3281 11.5738 22.6523 10.9378 22.6523 10.1427C22.6523 9.30793 23.2884 8.67188 24.0834 8.67188Z" fill="white"/>
</g>
<defs>
<filter id="filter0_i_4694_9849" x="0.867188" y="-0.413504" width="33.3945" height="33.8119" filterUnits="userSpaceOnUse" color-interpolation-filters="sRGB">
<feFlood flood-opacity="0" result="BackgroundImageFix"/>
<feBlend mode="normal" in="SourceGraphic" in2="BackgroundImageFix" result="shape"/>
<feColorMatrix in="SourceAlpha" type="matrix" values="0 0 0 0 0 0 0 0 0 0 0 0 0 0 0 0 0 0 127 0" result="hardAlpha"/>
<feOffset dy="-0.417411"/>
<feGaussianBlur stdDeviation="0.208705"/>
<feComposite in2="hardAlpha" operator="arithmetic" k2="-1" k3="1"/>
<feColorMatrix type="matrix" values="0 0 0 0 0 0 0 0 0 0 0 0 0 0 0 0 0 0 0.12 0"/>
<feBlend mode="normal" in2="shape" result="effect1_innerShadow_4694_9849"/>
</filter>
<radialGradient id="paint0_radial_4694_9849" cx="0" cy="0" r="1" gradientUnits="userSpaceOnUse" gradientTransform="translate(3.02834 32.6652) scale(42.3964)">
<stop offset="0.09" stop-color="#FA8F21"/>
<stop offset="0.78" stop-color="#D82D7E"/>
</radialGradient>
<radialGradient id="paint1_radial_4694_9849" cx="0" cy="0" r="1" gradientUnits="userSpaceOnUse" gradientTransform="translate(23.9972 31.593) scale(37.3093)">
<stop offset="0.64" stop-color="#8C3AAA" stop-opacity="0"/>
<stop offset="1" stop-color="#8C3AAA"/>
</radialGradient>
</defs>
</svg>
