<svg width="34" height="34" viewBox="0 0 34 34" fill="none" xmlns="http://www.w3.org/2000/svg">
<g filter="url(#filter0_i_4694_9842)">
<path d="M7.67813 0.00390625H25.9647C30.1388 0.00390625 33.5179 3.38295 33.5179 7.55704V25.8436C33.5179 30.0177 30.1388 33.3968 25.9647 33.3968H7.67813C3.50404 33.3968 0.125 30.0177 0.125 25.8436V7.55704C0.125 3.38295 3.50404 0.00390625 7.67813 0.00390625Z" fill="#0A66C2"/>
<path d="M6.76036 13.2081H11.1647V27.1105H6.76036V13.2081ZM8.96371 6.28906C9.46886 6.28906 9.9627 6.43607 10.3827 6.71144C10.8027 6.98681 11.1299 7.37821 11.3232 7.83611C11.5163 8.29401 11.5668 8.79783 11.468 9.28382C11.3693 9.76985 11.1259 10.2162 10.7685 10.5665C10.4112 10.9167 9.95594 11.1552 9.46043 11.2515C8.96492 11.3479 8.45138 11.298 7.98484 11.108C7.51826 10.918 7.11963 10.5966 6.83934 10.1843C6.55905 9.77198 6.40966 9.28741 6.41016 8.79186C6.41078 8.12784 6.68014 7.49125 7.15895 7.02195C7.63776 6.5527 8.28692 6.28906 8.96371 6.28906Z" fill="white"/>
<path d="M13.4805 13.3029H17.7075V15.1987H17.7659C18.3552 14.1134 19.7918 12.9688 21.937 12.9688C26.4026 12.9593 27.2305 15.8196 27.2305 19.5283V27.1116H22.8208V20.3933C22.8208 18.7937 22.7916 16.7344 20.5296 16.7344C18.2675 16.7344 17.8828 18.4785 17.8828 20.289V27.1116H13.4805V13.3029Z" fill="white"/>
</g>
<defs>
<filter id="filter0_i_4694_9842" x="0.125" y="-0.413504" width="33.3945" height="33.8119" filterUnits="userSpaceOnUse" color-interpolation-filters="sRGB">
<feFlood flood-opacity="0" result="BackgroundImageFix"/>
<feBlend mode="normal" in="SourceGraphic" in2="BackgroundImageFix" result="shape"/>
<feColorMatrix in="SourceAlpha" type="matrix" values="0 0 0 0 0 0 0 0 0 0 0 0 0 0 0 0 0 0 127 0" result="hardAlpha"/>
<feOffset dy="-0.417411"/>
<feGaussianBlur stdDeviation="0.208705"/>
<feComposite in2="hardAlpha" operator="arithmetic" k2="-1" k3="1"/>
<feColorMatrix type="matrix" values="0 0 0 0 0 0 0 0 0 0 0 0 0 0 0 0 0 0 0.12 0"/>
<feBlend mode="normal" in2="shape" result="effect1_innerShadow_4694_9842"/>
</filter>
</defs>
</svg>
