<svg width="136" height="39" viewBox="0 0 136 39" fill="none" xmlns="http://www.w3.org/2000/svg">
<path fill-rule="evenodd" clip-rule="evenodd" d="M0.00141686 10.897C0.00141686 16.9101 0.00135846 21.9907 0.00141686 22.1512C0.163154 21.9907 0.648366 21.6696 1.94226 20.7065L3.88311 19.2619L3.89702 13.8087L3.88311 8.66809L5.11005 9.82186C6.42206 11.2597 18.4624 22.1512 18.7629 22.1512C18.7629 21.9907 18.7629 16.9184 18.7629 10.9153C18.7629 4.91209 18.7603 0.160513 18.7603 0C18.6577 0 17.4664 0.802564 16.6361 1.36059L14.8812 2.58419V13.5499L13.6682 12.5204C13.0012 11.9541 9.92303 9.08607 6.82802 6.14708C3.73302 3.20777 0.330592 0.230817 0.000647968 0C-0.00117086 0.963077 0.00141686 0.314043 0.00141686 10.897ZM24.5855 3.53168H39.4653V0.000402219H24.5855V3.53168ZM45.6133 7.78527C45.6152 16.0912 45.797 17.4481 47.1449 19.2205C49.5237 22.3473 56.6023 22.8658 59.7281 20.1422C62.0364 18.1306 62.2327 17.2337 62.3644 8.1063L62.4812 0.000402219H58.5503V7.72107C58.5503 16.4443 58.6355 16.8794 56.2324 18.3262C54.2689 19.5084 51.198 18.6302 49.9413 16.5698C49.3969 15.678 49.32 14.731 49.2252 7.78527L49.1191 0.000402219H45.6113L45.6133 7.78527ZM68.2545 3.49123L74.0441 3.59171C79.0773 3.67903 79.9174 3.76764 80.4764 4.27036C81.8308 5.48865 81.5671 8.24979 80.03 8.94481C79.5273 9.1721 77.1443 9.31014 73.7222 9.31014H68.2479V13.1811H76.5782L80.744 22.1844H83.1471C84.5889 22.1844 85.0696 22.1844 85.5502 22.1844C85.5502 22.1844 84.3626 19.609 83.0959 17.3104C81.8295 15.0122 80.8471 13.0957 80.9124 13.0514C80.9781 13.0074 81.417 12.8077 81.888 12.6074C83.7089 11.8331 85.0752 9.10854 85.0752 6.25173C85.0752 3.32494 83.9068 1.56091 81.2349 0.452727C80.4308 0.119182 78.5815 0.000402219 74.1993 0.000402219H68.2545V3.49123ZM97.4597 0.46621C91.0831 2.44373 87.913 8.80966 90.2615 14.9201C91.2458 17.4812 93.5415 19.8741 96.1131 21.0195C97.085 21.4524 99.2739 21.8301 100.93 21.7021C106.201 21.2947 108.768 19.285 110.59 15.4096C111.807 12.8215 111.77 9.28093 110.497 6.51016C108.19 1.48932 102.566 -1.11773 97.4597 0.46621ZM116.31 11.0922C116.31 17.0954 116.31 22.1844 116.31 22.1844C116.407 22.1844 117.594 21.2375 118.561 20.5133L120.319 19.1964V8.68085L127.936 15.357L135.535 22.1844L135.461 11.0915C135.507 5.11402 135.535 0.160513 135.535 0C135.049 0.321026 135.535 0 133.432 1.44461L131.656 2.5682V8.05076V13.5035L124.128 6.72685C120.077 3.02735 116.396 0 116.31 0C116.31 0 116.31 5.08902 116.31 11.0922ZM98.6301 3.97341C96.8309 4.45399 95.558 5.39845 94.3829 7.12524C92.1768 10.3663 93.0718 14.7711 96.3544 16.8276C98.9151 18.4321 101.349 18.599 103.822 17.3403C105.324 16.5756 106.235 15.5756 107.044 13.8045C108.668 10.2498 107.264 6.28159 103.789 4.60391C101.878 3.6816 100.4 3.50086 98.6301 3.97341ZM24.5855 8.98871C24.5828 9.14923 24.5855 10.1875 24.5855 11.1294V12.8414H37.8479V8.98912H31.4325C27.9037 8.98912 24.7445 8.98871 24.5855 8.98871ZM24.5828 22.1508H32.0895L39.4653 22.1634V18.2989H24.5828V22.1508Z" fill="#1B193F"/>
<path d="M98.3913 36.0137C97.6873 36.0137 97.0824 35.8749 96.5767 35.5973C96.0709 35.3097 95.6793 34.923 95.4016 34.4371C95.1339 33.9413 95 33.3761 95 32.7414C95 32.1365 95.1537 31.5862 95.4611 31.0904C95.7685 30.5946 96.18 30.1979 96.6957 29.9005C97.2113 29.603 97.7864 29.4542 98.4211 29.4542C99.2342 29.4542 99.9085 29.6922 100.444 30.1682C100.979 30.6442 101.341 31.2986 101.53 32.1316L96.4577 33.9165L96.1304 33.0984L100.295 31.5812L99.9977 31.7746C99.8787 31.4474 99.6804 31.1648 99.4027 30.9268C99.1251 30.6789 98.7632 30.5549 98.3169 30.5549C97.9401 30.5549 97.603 30.6491 97.3055 30.8375C97.008 31.016 96.775 31.2639 96.6064 31.5812C96.4378 31.8986 96.3535 32.2605 96.3535 32.667C96.3535 33.0934 96.4428 33.4703 96.6213 33.7975C96.7998 34.1148 97.0427 34.3677 97.3501 34.5561C97.6674 34.7346 98.0244 34.8238 98.4211 34.8238C98.6888 34.8238 98.9466 34.7742 99.1945 34.6751C99.4523 34.5759 99.6903 34.447 99.9085 34.2883L100.548 35.3146C100.241 35.5229 99.8936 35.6915 99.5069 35.8204C99.1301 35.9493 98.7582 36.0137 98.3913 36.0137Z" fill="#1B193F"/>
<path d="M105.409 31.9977L106.882 29.7071H108.28L105.915 33.0092L105.409 31.9977ZM108.518 35.865H106.852L102.167 29.7071H103.877L108.518 35.865ZM105.26 33.5744L103.639 35.865H102.241L104.591 32.6522L105.26 33.5744Z" fill="#1B193F"/>
<path d="M113.632 36.0137C113.166 36.0137 112.715 35.9047 112.279 35.6865C111.852 35.4683 111.52 35.1758 111.282 34.8089L111.371 34.3776V38.8249H110.003V29.6178H111.193L111.386 31.1945L111.237 30.7632C111.535 30.3863 111.912 30.074 112.368 29.8261C112.824 29.5782 113.335 29.4542 113.9 29.4542C114.475 29.4542 114.991 29.5931 115.447 29.8707C115.913 30.1484 116.28 30.5351 116.548 31.0309C116.815 31.5267 116.949 32.1068 116.949 32.7712C116.949 33.4355 116.805 34.0107 116.518 34.4966C116.23 34.9825 115.834 35.3593 115.328 35.627C114.832 35.8848 114.267 36.0137 113.632 36.0137ZM113.364 34.913C113.761 34.913 114.123 34.8238 114.45 34.6453C114.787 34.4569 115.055 34.204 115.253 33.8867C115.452 33.5595 115.551 33.1926 115.551 32.786C115.551 32.3696 115.457 32.0027 115.268 31.6854C115.08 31.3581 114.827 31.1003 114.51 30.9119C114.202 30.7235 113.855 30.6293 113.469 30.6293C113.112 30.6293 112.789 30.6987 112.502 30.8375C112.214 30.9764 111.976 31.1697 111.788 31.4176C111.599 31.6556 111.466 31.9333 111.386 32.2506V33.2769C111.436 33.5942 111.555 33.8768 111.743 34.1247C111.932 34.3726 112.165 34.566 112.442 34.7048C112.73 34.8436 113.037 34.913 113.364 34.913Z" fill="#1B193F"/>
<path d="M121.676 36.0137C120.972 36.0137 120.367 35.8749 119.861 35.5973C119.355 35.3097 118.964 34.923 118.686 34.4371C118.418 33.9413 118.284 33.3761 118.284 32.7414C118.284 32.1365 118.438 31.5862 118.746 31.0904C119.053 30.5946 119.464 30.1979 119.98 29.9005C120.496 29.603 121.071 29.4542 121.705 29.4542C122.519 29.4542 123.193 29.6922 123.728 30.1682C124.264 30.6442 124.626 31.2986 124.814 32.1316L119.742 33.9165L119.415 33.0984L123.58 31.5812L123.282 31.7746C123.163 31.4474 122.965 31.1648 122.687 30.9268C122.41 30.6789 122.048 30.5549 121.601 30.5549C121.225 30.5549 120.887 30.6491 120.59 30.8375C120.292 31.016 120.059 31.2639 119.891 31.5812C119.722 31.8986 119.638 32.2605 119.638 32.667C119.638 33.0934 119.727 33.4703 119.906 33.7975C120.084 34.1148 120.327 34.3677 120.635 34.5561C120.952 34.7346 121.309 34.8238 121.705 34.8238C121.973 34.8238 122.231 34.7742 122.479 34.6751C122.737 34.5759 122.975 34.447 123.193 34.2883L123.832 35.3146C123.525 35.5229 123.178 35.6915 122.791 35.8204C122.414 35.9493 122.043 36.0137 121.676 36.0137Z" fill="#1B193F"/>
<path d="M127.782 29.7071L127.916 31.492L127.842 31.254C128 30.8772 128.228 30.5599 128.526 30.3021C128.833 30.0343 129.15 29.831 129.478 29.6922C129.815 29.5435 130.107 29.4691 130.355 29.4691L130.281 30.8375C129.815 30.8078 129.403 30.897 129.046 31.1053C128.699 31.3135 128.422 31.5912 128.213 31.9382C128.015 32.2853 127.916 32.6571 127.916 33.0538V35.865H126.547V29.7071H127.782Z" fill="#1B193F"/>
<path d="M132.735 27H134.118V29.7368H135.814V30.8227H134.118V35.865H132.735V30.8227H131.604V29.7368H132.735V27Z" fill="#1B193F"/>
</svg>
