<svg width="49" height="45" viewBox="0 0 49 45" fill="none" xmlns="http://www.w3.org/2000/svg">
<path fill-rule="evenodd" clip-rule="evenodd" d="M42.8125 12.4844V38.3125C42.8125 39.7546 42.2396 41.1377 41.2199 42.1574C40.2002 43.1771 38.8171 43.75 37.375 43.75H34.6562V41.0312H37.375C38.0961 41.0312 38.7876 40.7448 39.2974 40.2349C39.8073 39.7251 40.0938 39.0336 40.0938 38.3125V12.4844H34.6562C33.5747 12.4844 32.5374 12.0547 31.7726 11.2899C31.0078 10.5251 30.5781 9.48784 30.5781 8.40625V2.96875H15.625C14.9039 2.96875 14.2124 3.25519 13.7026 3.76505C13.1927 4.27492 12.9062 4.96644 12.9062 5.6875V30.1562H10.1875V5.6875C10.1875 4.24539 10.7604 2.86234 11.7801 1.84261C12.7998 0.822878 14.1829 0.25 15.625 0.25L30.5781 0.25L42.8125 12.4844Z" fill="#1B193F"/>
<path d="M0.529819 44.1211V42.2148H2.4361V44.1211H0.529819ZM4.90903 44.1211V33.0075H9.50109C9.60914 33.0075 9.74806 33.0127 9.91785 33.023C10.0876 33.0281 10.2446 33.0436 10.3886 33.0693C11.0318 33.167 11.5617 33.3806 11.9785 33.7099C12.4004 34.0391 12.7117 34.4559 12.9123 34.9601C13.1181 35.4592 13.221 36.0149 13.221 36.6272C13.221 37.2343 13.1181 37.79 12.9123 38.2942C12.7065 38.7933 12.3927 39.2075 11.9708 39.5368C11.554 39.866 11.0266 40.0796 10.3886 40.1773C10.2446 40.1979 10.0851 40.2133 9.91013 40.2236C9.74034 40.2339 9.60399 40.2391 9.50109 40.2391H6.76901V44.1211H4.90903ZM6.76901 38.5026H9.42391C9.52682 38.5026 9.64258 38.4974 9.77121 38.4871C9.89984 38.4769 10.0182 38.4563 10.1262 38.4254C10.4349 38.3482 10.6768 38.2119 10.8517 38.0164C11.0318 37.8208 11.1578 37.5996 11.2299 37.3526C11.307 37.1057 11.3456 36.8638 11.3456 36.6272C11.3456 36.3905 11.307 36.1487 11.2299 35.9017C11.1578 35.6496 11.0318 35.4258 10.8517 35.2303C10.6768 35.0347 10.4349 34.8984 10.1262 34.8212C10.0182 34.7903 9.89984 34.7723 9.77121 34.7672C9.64258 34.7569 9.52682 34.7518 9.42391 34.7518H6.76901V38.5026ZM14.7672 44.1211V33.0075H18.3097C18.4023 33.0075 18.585 33.0101 18.8576 33.0153C19.1355 33.0204 19.403 33.0384 19.6603 33.0693C20.5401 33.1825 21.2836 33.4963 21.8907 34.0109C22.503 34.5202 22.9661 35.1711 23.2799 35.9634C23.5938 36.7558 23.7507 37.6228 23.7507 38.5643C23.7507 39.5059 23.5938 40.3728 23.2799 41.1652C22.9661 41.9576 22.503 42.611 21.8907 43.1255C21.2836 43.6349 20.5401 43.9462 19.6603 44.0594C19.4082 44.0902 19.1432 44.1082 18.8654 44.1134C18.5875 44.1185 18.4023 44.1211 18.3097 44.1211H14.7672ZM16.6581 42.3692H18.3097C18.464 42.3692 18.6596 42.364 18.8962 42.3537C19.1381 42.3434 19.3516 42.3203 19.5368 42.2843C20.0616 42.1865 20.4887 41.9524 20.818 41.582C21.1472 41.2115 21.3891 40.7613 21.5434 40.2314C21.7029 39.7014 21.7827 39.1457 21.7827 38.5643C21.7827 37.9623 21.7029 37.3964 21.5434 36.8664C21.3839 36.3365 21.137 35.8914 20.8025 35.5312C20.4732 35.1711 20.0513 34.9421 19.5368 34.8444C19.3516 34.8032 19.1381 34.7801 18.8962 34.7749C18.6596 34.7646 18.464 34.7595 18.3097 34.7595H16.6581V42.3692ZM25.5751 44.1211V33.0075H32.2664V34.8675H27.4351V37.6382H31.3403V39.4904H27.4351V44.1211H25.5751Z" fill="#1B193F"/>
</svg>
