<svg width="34" height="35" viewBox="0 0 34 35" fill="none" xmlns="http://www.w3.org/2000/svg">
<g filter="url(#filter0_i_4694_9889)">
<path d="M7.80704 0.914062H26.0936C30.2677 0.914062 33.6468 4.2931 33.6468 8.46719V26.7538C33.6468 30.9279 30.2677 34.3069 26.0936 34.3069H7.80704C3.63295 34.3069 0.253906 30.9279 0.253906 26.7538V8.46719C0.253906 4.2931 3.63295 0.914062 7.80704 0.914062Z" fill="#FFFEFF"/>
<path d="M7.80927 1.125H26.0959C30.1547 1.125 33.4403 4.4106 33.4403 8.46943V26.756C33.4403 30.8148 30.1547 34.1004 26.0959 34.1004H7.80927C3.75044 34.1004 0.464844 30.8148 0.464844 26.756V8.46943C0.464844 4.4106 3.75044 1.125 7.80927 1.125Z" stroke="black" stroke-opacity="0.05" stroke-width="0.417411"/>
<mask id="mask0_4694_9889" style="mask-type:luminance" maskUnits="userSpaceOnUse" x="3" y="4" width="28" height="28">
<path d="M30.7215 4.25H3.58984V31.3817H30.7215V4.25Z" fill="white"/>
</mask>
<g mask="url(#mask0_4694_9889)">
<path d="M17.1613 31.393C24.6567 31.393 30.7329 25.3168 30.7329 17.8215C30.7329 10.3262 24.6567 4.25 17.1613 4.25C9.66601 4.25 3.58984 10.3262 3.58984 17.8215C3.58984 25.3168 9.66601 31.393 17.1613 31.393Z" fill="url(#paint0_linear_4694_9889)"/>
<path fill-rule="evenodd" clip-rule="evenodd" d="M9.72775 17.676C13.6828 15.9584 16.3157 14.8171 17.6379 14.2634C21.4008 12.6927 22.1918 12.4215 22.7003 12.4102C22.8133 12.4102 23.0619 12.4327 23.2314 12.5684C23.3671 12.6813 23.401 12.8283 23.4235 12.9413C23.4462 13.0543 23.4687 13.2916 23.4462 13.4724C23.2428 15.6194 22.3614 20.8288 21.9093 23.2244C21.7172 24.2414 21.3443 24.5804 20.9827 24.6143C20.1917 24.6821 19.5928 24.0945 18.8357 23.5973C17.6379 22.8176 16.9712 22.3317 15.8073 21.5633C14.4625 20.6819 15.3326 20.196 16.101 19.405C16.3044 19.2016 19.7736 16.0375 19.8414 15.755C19.8527 15.7211 19.8527 15.5855 19.7736 15.5177C19.6945 15.4499 19.5815 15.4725 19.4911 15.4951C19.3668 15.5177 17.4684 16.7833 13.7732 19.2807C13.2308 19.6536 12.7449 19.8343 12.3042 19.8231C11.8183 19.8118 10.8917 19.5518 10.1911 19.3259C9.34357 19.0547 8.66553 18.9077 8.72204 18.4331C8.75594 18.1845 9.09496 17.9359 9.72775 17.676Z" fill="white"/>
</g>
</g>
<defs>
<filter id="filter0_i_4694_9889" x="0.253906" y="0.496652" width="33.3945" height="33.8119" filterUnits="userSpaceOnUse" color-interpolation-filters="sRGB">
<feFlood flood-opacity="0" result="BackgroundImageFix"/>
<feBlend mode="normal" in="SourceGraphic" in2="BackgroundImageFix" result="shape"/>
<feColorMatrix in="SourceAlpha" type="matrix" values="0 0 0 0 0 0 0 0 0 0 0 0 0 0 0 0 0 0 127 0" result="hardAlpha"/>
<feOffset dy="-0.417411"/>
<feGaussianBlur stdDeviation="0.208705"/>
<feComposite in2="hardAlpha" operator="arithmetic" k2="-1" k3="1"/>
<feColorMatrix type="matrix" values="0 0 0 0 0 0 0 0 0 0 0 0 0 0 0 0 0 0 0.12 0"/>
<feBlend mode="normal" in2="shape" result="effect1_innerShadow_4694_9889"/>
</filter>
<linearGradient id="paint0_linear_4694_9889" x1="17.1501" y1="4.25" x2="17.1501" y2="31.1783" gradientUnits="userSpaceOnUse">
<stop stop-color="#2AABEE"/>
<stop offset="1" stop-color="#229ED9"/>
</linearGradient>
</defs>
</svg>
