<svg width="34" height="35" viewBox="0 0 34 35" fill="none" xmlns="http://www.w3.org/2000/svg">
<g filter="url(#filter0_i_4694_9881)">
<path d="M8.06876 0.914062H26.3554C30.5295 0.914062 33.9085 4.2931 33.9085 8.46719V26.7538C33.9085 30.9279 30.5295 34.3069 26.3554 34.3069H8.06876C3.89466 34.3069 0.515625 30.9279 0.515625 26.7538V8.46719C0.515625 4.2931 3.89466 0.914062 8.06876 0.914062Z" fill="#020002"/>
<path d="M22.3461 14.4197C23.9155 15.5433 25.838 16.2045 27.9145 16.2045V12.2023C27.5215 12.2024 27.1295 12.1613 26.7451 12.0798V15.23C24.6688 15.23 22.7465 14.5689 21.1767 13.4453V21.6126C21.1767 25.6982 17.87 29.0101 13.7912 29.0101C12.2693 29.0101 10.8548 28.5492 9.67969 27.7589C11.0208 29.1324 12.8912 29.9845 14.9604 29.9845C19.0394 29.9845 22.3463 26.6726 22.3463 22.5868L22.3461 14.4197ZM23.7887 10.382C22.9867 9.50436 22.4601 8.37022 22.3461 7.11631V6.60156H21.238C21.5169 8.19524 22.4683 9.55679 23.7887 10.382ZM12.2595 24.6236C11.8114 24.0352 11.5693 23.3153 11.5704 22.575C11.5704 20.7064 13.0828 19.1913 14.9488 19.1913C15.2966 19.1912 15.6423 19.2446 15.9737 19.3499V15.2583C15.5864 15.2051 15.1955 15.1826 14.8048 15.1908V18.3756C14.4731 18.2702 14.1273 18.2167 13.7795 18.2171C11.9135 18.2171 10.4011 19.732 10.4011 21.6009C10.4011 22.9223 11.1571 24.0664 12.2595 24.6236Z" fill="#FF004F"/>
<path d="M21.1801 13.4453C22.7499 14.5688 24.6722 15.2299 26.7485 15.2299V12.0797C25.5895 11.8324 24.5635 11.2258 23.7921 10.382C22.4716 9.55671 21.5203 8.19515 21.2414 6.60156H18.3305V22.5866C18.3239 24.4501 16.814 25.959 14.9521 25.959C13.8548 25.959 12.88 25.4352 12.2627 24.6236C11.1603 24.0663 10.4043 22.9222 10.4043 21.601C10.4043 19.7323 11.9167 18.2171 13.7826 18.2171C14.1402 18.2171 14.4848 18.2729 14.808 18.3756V15.1909C10.8008 15.2739 7.57812 18.5533 7.57812 22.5867C7.57812 24.6001 8.38064 26.4253 9.68317 27.7589C10.8582 28.5492 12.2728 29.0102 13.7947 29.0102C17.8736 29.0102 21.1802 25.6981 21.1802 21.6126L21.1801 13.4453Z" fill="#FFFEFF"/>
<path d="M26.7498 12.0813V11.2295C25.7047 11.2311 24.6801 10.938 23.7934 10.3835C24.5784 11.2443 25.612 11.8378 26.7498 12.0813ZM21.2427 6.60318C21.2161 6.45087 21.1956 6.29756 21.1814 6.14366V5.62891H17.1624V21.6141C17.156 23.4774 15.6462 24.9863 13.784 24.9863C13.2373 24.9863 12.7212 24.8563 12.264 24.6254C12.8814 25.4368 13.8562 25.9606 14.9534 25.9606C16.8152 25.9606 18.3254 24.4518 18.3319 22.5883V6.60318H21.2427ZM14.8095 15.1925V14.2858C14.4737 14.2398 14.1351 14.2167 13.7961 14.2169C9.71688 14.2168 6.41016 17.5288 6.41016 21.6141C6.41016 24.1754 7.70976 26.4327 9.68458 27.7604C8.38209 26.4269 7.57953 24.6016 7.57953 22.5882C7.57953 18.555 10.8022 15.2755 14.8095 15.1925Z" fill="#00F2EA"/>
</g>
<defs>
<filter id="filter0_i_4694_9881" x="0.515625" y="0.496652" width="33.3945" height="33.8119" filterUnits="userSpaceOnUse" color-interpolation-filters="sRGB">
<feFlood flood-opacity="0" result="BackgroundImageFix"/>
<feBlend mode="normal" in="SourceGraphic" in2="BackgroundImageFix" result="shape"/>
<feColorMatrix in="SourceAlpha" type="matrix" values="0 0 0 0 0 0 0 0 0 0 0 0 0 0 0 0 0 0 127 0" result="hardAlpha"/>
<feOffset dy="-0.417411"/>
<feGaussianBlur stdDeviation="0.208705"/>
<feComposite in2="hardAlpha" operator="arithmetic" k2="-1" k3="1"/>
<feColorMatrix type="matrix" values="0 0 0 0 0 0 0 0 0 0 0 0 0 0 0 0 0 0 0.12 0"/>
<feBlend mode="normal" in2="shape" result="effect1_innerShadow_4694_9881"/>
</filter>
</defs>
</svg>
