<svg width="35" height="35" viewBox="0 0 35 35" fill="none" xmlns="http://www.w3.org/2000/svg">
<g filter="url(#filter0_i_4694_9871)">
<path d="M8.32657 0.910156H26.6132C30.7873 0.910156 34.1663 4.2892 34.1663 8.46329V26.7499C34.1663 30.924 30.7873 34.303 26.6132 34.303H8.32657C4.15248 34.303 0.773438 30.924 0.773438 26.7499V8.46329C0.773438 4.2892 4.15248 0.910156 8.32657 0.910156Z" fill="#0E1317"/>
<mask id="mask0_4694_9871" style="mask-type:luminance" maskUnits="userSpaceOnUse" x="7" y="7" width="21" height="21">
<path d="M27.4888 7.58594H7.45312V27.6217H27.4888V7.58594Z" fill="white"/>
</mask>
<g mask="url(#mask0_4694_9871)">
<path fill-rule="evenodd" clip-rule="evenodd" d="M14.9171 17.9849L7.27734 8.26562H13.3285L18.0445 14.2728L23.0827 8.29267H26.4154L19.6559 16.3254L27.6708 26.5348H21.6377L16.5313 20.0384L11.0797 26.5168H7.7289L14.9171 17.9849ZM22.517 24.734L10.9877 10.0664H12.4485L23.9633 24.734H22.517Z" fill="white"/>
</g>
</g>
<defs>
<filter id="filter0_i_4694_9871" x="0.773438" y="0.492746" width="33.3945" height="33.8119" filterUnits="userSpaceOnUse" color-interpolation-filters="sRGB">
<feFlood flood-opacity="0" result="BackgroundImageFix"/>
<feBlend mode="normal" in="SourceGraphic" in2="BackgroundImageFix" result="shape"/>
<feColorMatrix in="SourceAlpha" type="matrix" values="0 0 0 0 0 0 0 0 0 0 0 0 0 0 0 0 0 0 127 0" result="hardAlpha"/>
<feOffset dy="-0.417411"/>
<feGaussianBlur stdDeviation="0.208705"/>
<feComposite in2="hardAlpha" operator="arithmetic" k2="-1" k3="1"/>
<feColorMatrix type="matrix" values="0 0 0 0 0 0 0 0 0 0 0 0 0 0 0 0 0 0 0.12 0"/>
<feBlend mode="normal" in2="shape" result="effect1_innerShadow_4694_9871"/>
</filter>
</defs>
</svg>
