<svg width="62" height="62" viewBox="0 0 62 62" fill="none" xmlns="http://www.w3.org/2000/svg">
<g filter="url(#filter0_d_4040_4814)">
<g clip-path="url(#clip0_4040_4814)">
<path d="M39.1922 7.97656H16.8547C11.4121 7.97656 7 12.3887 7 17.8313V40.1687C7 45.6114 11.4121 50.0235 16.8547 50.0235H39.1922C44.6348 50.0235 49.0469 45.6114 49.0469 40.1687V17.8313C49.0469 12.3887 44.6348 7.97656 39.1922 7.97656Z" fill="url(#paint0_radial_4040_4814)"/>
<path d="M39.1922 7.97656H16.8547C11.4121 7.97656 7 12.3887 7 17.8313V40.1687C7 45.6114 11.4121 50.0235 16.8547 50.0235H39.1922C44.6348 50.0235 49.0469 45.6114 49.0469 40.1687V17.8313C49.0469 12.3887 44.6348 7.97656 39.1922 7.97656Z" fill="url(#paint1_radial_4040_4814)"/>
<path d="M28.0237 12.5781C23.5631 12.5781 23.0032 12.5977 21.2514 12.6773C19.5028 12.7575 18.3092 13.0342 17.265 13.4404C16.1845 13.8599 15.2682 14.4211 14.3553 15.3343C13.4416 16.2474 12.8804 17.1637 12.4596 18.2436C12.0523 19.2882 11.7752 20.4823 11.6965 22.23C11.6182 23.982 11.5977 24.5421 11.5977 29.0029C11.5977 33.4636 11.6174 34.0217 11.6969 35.7736C11.7773 37.5221 12.0541 38.7157 12.4599 39.76C12.8798 40.8404 13.441 41.7567 14.3542 42.6696C15.2669 43.5833 16.1832 44.1458 17.2628 44.5653C18.3079 44.9715 19.5017 45.2482 21.2499 45.3284C23.0019 45.4081 23.5613 45.4276 28.0217 45.4276C32.4828 45.4276 33.0409 45.4081 34.7928 45.3284C36.5413 45.2482 37.7362 44.9715 38.7813 44.5653C39.8612 44.1458 40.7762 43.5833 41.6888 42.6696C42.6025 41.7567 43.1636 40.8404 43.5845 39.7605C43.9882 38.7157 44.2655 37.5218 44.3476 35.7739C44.4263 34.0221 44.4468 33.4636 44.4468 29.0029C44.4468 24.5421 44.4263 23.9824 44.3476 22.2304C44.2655 20.4818 43.9882 19.2884 43.5845 18.2441C43.1636 17.1637 42.6025 16.2474 41.6888 15.3343C40.7753 14.4208 39.8616 13.8596 38.7803 13.4406C37.7333 13.0342 36.539 12.7573 34.7905 12.6773C33.0385 12.5977 32.4807 12.5781 28.0186 12.5781H28.0237ZM26.5503 15.538C26.9876 15.5373 27.4756 15.538 28.0237 15.538C32.4092 15.538 32.9289 15.5538 34.6607 15.6324C36.2621 15.7057 37.1313 15.9732 37.7103 16.1981C38.4768 16.4957 39.0232 16.8516 39.5978 17.4267C40.1726 18.0015 40.5284 18.549 40.8268 19.3155C41.0517 19.8936 41.3196 20.7628 41.3925 22.3642C41.4712 24.0957 41.4882 24.6157 41.4882 28.9991C41.4882 33.3825 41.4712 33.9026 41.3925 35.634C41.3192 37.2354 41.0517 38.1045 40.8268 38.6829C40.5292 39.4494 40.1726 39.9952 39.5978 40.5697C39.0229 41.1446 38.4771 41.5003 37.7103 41.7981C37.132 42.0239 36.2621 42.2908 34.6607 42.3641C32.9292 42.4428 32.4092 42.4598 28.0237 42.4598C23.638 42.4598 23.1182 42.4428 21.3869 42.3641C19.7855 42.2902 18.9163 42.0226 18.3368 41.7978C17.5705 41.5 17.0229 41.1442 16.448 40.5694C15.8731 39.9945 15.5174 39.4484 15.2189 38.6815C14.9941 38.1032 14.7262 37.234 14.6533 35.6326C14.5746 33.9012 14.5588 33.3812 14.5588 28.995C14.5588 24.609 14.5746 24.0916 14.6533 22.3601C14.7265 20.7587 14.9941 19.8895 15.2189 19.3106C15.5167 18.544 15.8731 17.9966 16.4482 17.4217C17.023 16.8469 17.5705 16.491 18.337 16.1927C18.916 15.9668 19.7855 15.6999 21.3869 15.6264C22.902 15.5579 23.4892 15.5373 26.5503 15.5339V15.538ZM36.7911 18.2651C35.703 18.2651 34.8202 19.1471 34.8202 20.2354C34.8202 21.3236 35.703 22.2064 36.7911 22.2064C37.8793 22.2064 38.7621 21.3236 38.7621 20.2354C38.7621 19.1473 37.8793 18.2645 36.7911 18.2645V18.2651ZM28.0237 20.568C23.3657 20.568 19.589 24.3447 19.589 29.0029C19.589 33.661 23.3657 37.4359 28.0237 37.4359C32.6819 37.4359 36.4572 33.661 36.4572 29.0029C36.4572 24.3449 32.6816 20.568 28.0234 20.568H28.0237ZM28.0237 23.5279C31.0473 23.5279 33.4987 25.9789 33.4987 29.0029C33.4987 32.0265 31.0473 34.4778 28.0237 34.4778C24.9999 34.4778 22.5489 32.0265 22.5489 29.0029C22.5489 25.9789 24.9999 23.5279 28.0237 23.5279Z" fill="white"/>
</g>
</g>
<defs>
<filter id="filter0_d_4040_4814" x="0.788525" y="0.33167" width="61.1591" height="61.1591" filterUnits="userSpaceOnUse" color-interpolation-filters="sRGB">
<feFlood flood-opacity="0" result="BackgroundImageFix"/>
<feColorMatrix in="SourceAlpha" type="matrix" values="0 0 0 0 0 0 0 0 0 0 0 0 0 0 0 0 0 0 127 0" result="hardAlpha"/>
<feOffset dx="3.34464" dy="1.91122"/>
<feGaussianBlur stdDeviation="4.77806"/>
<feColorMatrix type="matrix" values="0 0 0 0 0.0372569 0 0 0 0 0.113158 0 0 0 0 0.308333 0 0 0 0.25 0"/>
<feBlend mode="normal" in2="BackgroundImageFix" result="effect1_dropShadow_4040_4814"/>
<feBlend mode="normal" in="SourceGraphic" in2="effect1_dropShadow_4040_4814" result="shape"/>
</filter>
<radialGradient id="paint0_radial_4040_4814" cx="0" cy="0" r="1" gradientUnits="userSpaceOnUse" gradientTransform="translate(18.1687 53.2619) rotate(-90) scale(41.6716 38.7579)">
<stop stop-color="#FFDD55"/>
<stop offset="0.1" stop-color="#FFDD55"/>
<stop offset="0.5" stop-color="#FF543E"/>
<stop offset="1" stop-color="#C837AB"/>
</radialGradient>
<radialGradient id="paint1_radial_4040_4814" cx="0" cy="0" r="1" gradientUnits="userSpaceOnUse" gradientTransform="translate(-0.0430215 11.0054) rotate(78.681) scale(18.6274 76.7829)">
<stop stop-color="#3771C8"/>
<stop offset="0.128" stop-color="#3771C8"/>
<stop offset="1" stop-color="#6600FF" stop-opacity="0"/>
</radialGradient>
<clipPath id="clip0_4040_4814">
<rect width="42.0469" height="42.0469" fill="white" transform="translate(7 7.97656)"/>
</clipPath>
</defs>
</svg>
