<svg xmlns="http://www.w3.org/2000/svg" width="19" height="19" viewBox="0 0 19 19" fill="none">
	<path
		d="M4.02629 10.0677L11.5263 0.567677L10.0263 8.06768H15.0263L7.52629 18.5677L9.02629 10.0677H4.02629Z"
		fill="url(#paint0_linear_1842_39694)" />
	<path
		d="M11.0493 1.20115L9.7095 8.24038L14.5631 8.2567L7.95645 17.7994L9.29625 10.0552L4.44293 10.0382L11.0493 1.20115ZM11.0502 0.0136723C11.0181 0.0136723 10.9861 0.0148413 10.9546 0.0171977C10.745 0.0341382 10.6061 0.104201 10.4413 0.214935C10.3485 0.276785 10.2649 0.351333 10.1928 0.436404C10.1712 0.461936 10.1508 0.488487 10.1317 0.515966L3.47779 9.32217C3.21506 9.68228 3.17647 10.1576 3.37834 10.5548C3.57992 10.952 3.98753 11.2038 4.43432 11.207L7.86204 11.232L6.78439 17.5813C6.68197 18.1269 6.9729 18.6708 7.48501 18.8899C7.63384 18.9538 7.79415 18.9868 7.95613 18.9867C8.32931 18.9867 8.63598 18.8121 8.86608 18.4968L15.5282 8.95405C15.791 8.59392 15.8293 8.11803 15.6277 7.7214C15.4261 7.32418 15.0185 7.07241 14.5717 7.06917L11.144 7.06323L12.2101 1.48049C12.2327 1.3891 12.244 1.29528 12.2439 1.20114C12.2439 0.558698 11.7324 0.0350102 11.0923 0.014229C11.0781 0.0136352 11.0641 0.0136723 11.0502 0.0136723Z"
		fill="url(#paint1_linear_1842_39694)" />
	<defs>
		<linearGradient id="paint0_linear_1842_39694" x1="15.6429" y1="17.7295" x2="1.25988"
			y2="17.6117" gradientUnits="userSpaceOnUse">
			<stop offset="0.116616" stop-color="#1D4ED8" />
			<stop offset="0.931232" stop-color="#5AD7FE" />
		</linearGradient>
		<linearGradient id="paint1_linear_1842_39694" x1="15.6429" y1="17.7295" x2="1.25988"
			y2="17.6117" gradientUnits="userSpaceOnUse">
			<stop offset="0.116616" stop-color="#1D4ED8" />
			<stop offset="0.931232" stop-color="#5AD7FE" />
		</linearGradient>
	</defs>
</svg>