<svg class="soc-icon" xmlns="http://www.w3.org/2000/svg" width="50" height="50"
	viewBox="0 0 50 50" fill="none">
	<g clip-path="url(#clip0_4510_31836)">
		<g filter="url(#filter0_i_4510_31836)">
			<path
				d="M11.3095 0H38.6905C44.9405 0 50 5.05952 50 11.3095V38.6905C50 44.9405 44.9405 50 38.6905 50H11.3095C5.05952 50 0 44.9405 0 38.6905V11.3095C0 5.05952 5.05952 0 11.3095 0Z"
				fill="url(#paint0_linear_4510_31836)" />
			<path
				d="M41.2604 13.75H9.01697C8.72403 13.75 8.44828 13.8362 8.20703 13.9741L8.55166 14.3187L23.0104 28.7946C24.1823 29.9665 26.0952 29.9665 27.267 28.7946L42.0877 13.9912C41.8463 13.8362 41.5534 13.75 41.2604 13.75Z"
				fill="white" />
			<path
				d="M42.7915 15.2826C42.7915 14.9897 42.7053 14.7139 42.5674 14.4727L31.8828 25.2607L42.6019 35.9453C42.7226 35.7213 42.7915 35.4628 42.7915 35.2043V15.2826Z"
				fill="white" />
			<path
				d="M7.5 15.2826C7.5 14.9897 7.58619 14.7139 7.72406 14.4727L18.4087 25.2607L7.68956 35.9453C7.56894 35.7213 7.5 35.4628 7.5 35.2043V15.2826Z"
				fill="white" />
			<path
				d="M31.3168 25.7617L27.5772 29.5013C26.233 30.8455 24.0272 30.8455 22.683 29.5013L18.9433 25.779L8.20703 36.4981C8.44828 36.636 8.70678 36.7221 8.99972 36.7221H41.2432C41.5362 36.7221 41.8119 36.636 42.0359 36.4981L41.3983 35.8605L31.3168 25.7617Z"
				fill="white" />
		</g>
	</g>
	<defs>
		<filter id="filter0_i_4510_31836" x="0" y="-1" width="50" height="51"
			filterUnits="userSpaceOnUse" color-interpolation-filters="sRGB">
			<feFlood flood-opacity="0" result="BackgroundImageFix" />
			<feBlend mode="normal" in="SourceGraphic" in2="BackgroundImageFix"
				result="shape" />
			<feColorMatrix in="SourceAlpha" type="matrix"
				values="0 0 0 0 0 0 0 0 0 0 0 0 0 0 0 0 0 0 127 0" result="hardAlpha" />
			<feOffset dy="-1" />
			<feGaussianBlur stdDeviation="0.5" />
			<feComposite in2="hardAlpha" operator="arithmetic" k2="-1" k3="1" />
			<feColorMatrix type="matrix"
				values="0 0 0 0 0 0 0 0 0 0 0 0 0 0 0 0 0 0 0.12 0" />
			<feBlend mode="normal" in2="shape" result="effect1_innerShadow_4510_31836" />
		</filter>
		<linearGradient id="paint0_linear_4510_31836" x1="25" y1="0" x2="25" y2="50"
			gradientUnits="userSpaceOnUse">
			<stop stop-color="#1E51EE" />
			<stop offset="1" stop-color="#19E4FF" />
		</linearGradient>
		<clipPath id="clip0_4510_31836">
			<rect width="50" height="50" fill="white" />
		</clipPath>
	</defs>
</svg>