<svg class="soc-icon" xmlns="http://www.w3.org/2000/svg" width="50" height="50"
	viewBox="0 0 50 50" fill="none">
	<g clip-path="url(#clip0_4510_31871)">
		<g filter="url(#filter0_i_4510_31871)">
			<path
				d="M11.3095 0H38.6905C44.9405 0 50 5.05952 50 11.3095V38.6905C50 44.9405 44.9405 50 38.6905 50H11.3095C5.05952 50 0 44.9405 0 38.6905V11.3095C0 5.05952 5.05952 0 11.3095 0Z"
				fill="url(#paint0_radial_4510_31871)" />
			<path
				d="M11.3095 0H38.6905C44.9405 0 50 5.05952 50 11.3095V38.6905C50 44.9405 44.9405 50 38.6905 50H11.3095C5.05952 50 0 44.9405 0 38.6905V11.3095C0 5.05952 5.05952 0 11.3095 0Z"
				fill="url(#paint1_radial_4510_31871)" />
			<path
				d="M24.2262 6.54688C26.6071 6.54688 28.9881 6.54688 31.369 6.54688C32.8571 6.54688 34.4047 6.66594 35.8929 7.08256C38.5119 7.79688 40.5357 9.285 41.9047 11.6064C42.7381 13.035 43.0952 14.5826 43.2738 16.1897C43.3928 17.6183 43.4524 19.0469 43.4524 20.4754C43.4524 23.9874 43.4524 27.5587 43.4524 31.0707C43.4524 32.6778 43.3333 34.285 42.9167 35.8921C42.0238 39.1064 40.0595 41.3683 36.9643 42.5588C35.4762 43.154 33.869 43.3326 32.2619 43.3921C28.3333 43.4516 24.4047 43.5112 20.4762 43.5112C18.8095 43.5112 17.0833 43.4516 15.4762 43.2136C13.1547 42.9159 11.1309 42.0231 9.46429 40.2969C7.91666 38.6897 7.08329 36.7254 6.78566 34.5231C6.42854 31.5469 6.4881 28.5707 6.4881 25.535C6.4881 23.035 6.5476 20.5945 6.5476 18.0945C6.6071 16.3683 6.72616 14.6421 7.38091 12.9754C8.57141 9.88019 10.7738 7.97544 13.9881 7.08256C15.4762 6.66594 17.0238 6.60638 18.5714 6.54688C20.3571 6.54688 22.3214 6.54688 24.2262 6.54688ZM40.1785 25.0588C40.1785 23.6302 40.2381 22.2612 40.1785 20.8326C40.119 19.1064 40.0595 17.3207 39.8809 15.5945C39.7619 14.404 39.2857 13.2731 38.4524 12.3207C37.0833 10.7136 35.2976 9.99925 33.2738 9.88019C31.3095 9.76119 29.2857 9.70162 27.3214 9.70162C23.75 9.70162 20.1785 9.76119 16.6071 9.88019C15.2976 9.93975 14.0476 10.2374 12.9167 10.9516C11.0714 12.0826 10.119 13.8088 9.94048 15.8921C9.76185 17.6778 9.70235 19.4636 9.64285 21.2493C9.64285 24.7016 9.64285 28.0945 9.70235 31.5469C9.70235 32.7374 9.88091 33.9874 10.119 35.1183C10.4762 36.6659 11.369 37.9159 12.6785 38.8088C13.9881 39.7016 15.5357 39.9992 17.0833 40.0588C18.9285 40.1183 20.7143 40.1778 22.5595 40.1778C26.0714 40.1778 29.5833 40.1183 33.0952 40.0588C34.5833 39.9992 36.0119 39.6421 37.2024 38.7492C38.6905 37.6778 39.5833 36.1898 39.8214 34.404C40 33.0945 40.0595 31.785 40.119 30.4754C40.1785 28.6897 40.1785 26.904 40.1785 25.0588Z"
				fill="white" />
			<path
				d="M34.3465 25.0004C34.3465 30.298 30.1203 34.4647 24.8227 34.4647C19.6442 34.4647 15.418 30.179 15.418 24.9409C15.418 19.7623 19.7037 15.4766 24.9418 15.4766C30.1203 15.5361 34.3465 19.7623 34.3465 25.0004ZM18.6918 25.0004C18.6918 28.4527 21.4894 31.2504 24.9418 31.2504C28.3942 31.2504 31.1918 28.4527 31.1918 25.0004C31.1918 21.6076 28.3942 18.8099 24.9418 18.8099C21.4298 18.8099 18.6918 21.548 18.6918 25.0004Z"
				fill="white" />
			<path
				d="M34.76 12.9766C36.01 12.9766 36.9624 13.9289 36.9624 15.1194C36.9624 16.3099 36.01 17.3218 34.8196 17.3218C33.6291 17.3218 32.6172 16.3694 32.6172 15.1789C32.6172 13.9289 33.5696 12.9766 34.76 12.9766Z"
				fill="white" />
		</g>
	</g>
	<defs>
		<filter id="filter0_i_4510_31871" x="0" y="-1" width="50" height="51"
			filterUnits="userSpaceOnUse" color-interpolation-filters="sRGB">
			<feFlood flood-opacity="0" result="BackgroundImageFix" />
			<feBlend mode="normal" in="SourceGraphic" in2="BackgroundImageFix"
				result="shape" />
			<feColorMatrix in="SourceAlpha" type="matrix"
				values="0 0 0 0 0 0 0 0 0 0 0 0 0 0 0 0 0 0 127 0" result="hardAlpha" />
			<feOffset dy="-1" />
			<feGaussianBlur stdDeviation="0.5" />
			<feComposite in2="hardAlpha" operator="arithmetic" k2="-1" k3="1" />
			<feColorMatrix type="matrix"
				values="0 0 0 0 0 0 0 0 0 0 0 0 0 0 0 0 0 0 0.12 0" />
			<feBlend mode="normal" in2="shape" result="effect1_innerShadow_4510_31871" />
		</filter>
		<radialGradient id="paint0_radial_4510_31871" cx="0" cy="0" r="1"
			gradientUnits="userSpaceOnUse"
			gradientTransform="translate(3.23595 48.9046) scale(63.4813)">
			<stop offset="0.09" stop-color="#FA8F21" />
			<stop offset="0.78" stop-color="#D82D7E" />
		</radialGradient>
		<radialGradient id="paint1_radial_4510_31871" cx="0" cy="0" r="1"
			gradientUnits="userSpaceOnUse"
			gradientTransform="translate(34.6332 47.2992) scale(55.8642)">
			<stop offset="0.64" stop-color="#8C3AAA" stop-opacity="0" />
			<stop offset="1" stop-color="#8C3AAA" />
		</radialGradient>
		<clipPath id="clip0_4510_31871">
			<rect width="50" height="50" fill="white" />
		</clipPath>
	</defs>
</svg>